<svg xmlns="http://www.w3.org/2000/svg" xmlns:xlink="http://www.w3.org/1999/xlink" width="50" zoomAndPan="magnify" viewBox="0 0 37.5 37.499999" height="50" preserveAspectRatio="xMidYMid meet" version="1.0"><defs><clipPath id="decbcc3522"><path d="M 1.183594 4 L 28 4 L 28 36.117188 L 1.183594 36.117188 Z M 1.183594 4 " clip-rule="nonzero"/></clipPath><clipPath id="86148871ba"><path d="M 7 1.332031 L 21 1.332031 L 21 8 L 7 8 Z M 7 1.332031 " clip-rule="nonzero"/></clipPath></defs><path fill="#ffffff" d="M 34.414062 11.125 C 33.804688 10.535156 33.195312 9.949219 32.585938 9.363281 C 32.175781 8.972656 31.691406 8.945312 31.292969 9.34375 C 30.621094 10.011719 29.984375 10.710938 29.347656 11.382812 C 30.390625 12.390625 31.445312 13.40625 32.460938 14.386719 C 33.136719 13.710938 33.847656 13.035156 34.511719 12.316406 C 34.847656 11.957031 34.769531 11.472656 34.414062 11.125 " fill-opacity="1" fill-rule="nonzero"/><path fill="#ffffff" d="M 22.179688 6.457031 C 22.179688 6.488281 22.179688 6.515625 22.179688 6.542969 L 24.125 6.542969 C 25.082031 6.542969 25.859375 7.316406 25.859375 8.273438 L 25.859375 13.179688 L 27.984375 10.96875 L 27.984375 6.144531 C 27.984375 5.191406 27.210938 4.414062 26.253906 4.414062 L 22.101562 4.414062 C 22.152344 4.65625 22.175781 4.917969 22.175781 5.203125 C 22.179688 5.621094 22.179688 6.027344 22.179688 6.457031 " fill-opacity="1" fill-rule="nonzero"/><g clip-path="url(#decbcc3522)"><path fill="#ffffff" d="M 25.859375 32.410156 C 25.859375 33.363281 25.082031 34.140625 24.125 34.140625 L 5.058594 34.140625 C 4.105469 34.140625 3.328125 33.363281 3.328125 32.410156 L 3.328125 8.273438 C 3.328125 7.316406 4.105469 6.542969 5.058594 6.542969 L 6.589844 6.542969 C 6.589844 6.390625 6.585938 6.230469 6.582031 6.070312 C 6.570312 5.566406 6.558594 5.003906 6.660156 4.414062 L 2.933594 4.414062 C 1.976562 4.414062 1.203125 5.191406 1.203125 6.144531 L 1.203125 34.535156 C 1.203125 35.492188 1.976562 36.265625 2.933594 36.265625 L 26.253906 36.265625 C 27.210938 36.265625 27.984375 35.492188 27.984375 34.535156 L 27.984375 20.933594 L 25.859375 23.140625 L 25.859375 32.410156 " fill-opacity="1" fill-rule="nonzero"/></g><g clip-path="url(#86148871ba)"><path fill="#ffffff" d="M 14.375 3.34375 C 14.980469 3.335938 15.480469 3.820312 15.488281 4.425781 C 15.496094 5.027344 15.007812 5.535156 14.410156 5.554688 C 13.820312 5.574219 13.296875 5.074219 13.28125 4.480469 C 13.269531 3.847656 13.746094 3.351562 14.375 3.34375 Z M 7.859375 6.773438 C 7.855469 6.921875 7.972656 7.042969 8.121094 7.042969 L 20.640625 7.042969 C 20.785156 7.042969 20.902344 6.925781 20.902344 6.78125 C 20.902344 6.242188 20.90625 5.726562 20.902344 5.207031 C 20.902344 4.132812 20.441406 3.679688 19.347656 3.679688 C 18.554688 3.679688 18.070312 3.679688 17.289062 3.679688 C 16.753906 2.199219 15.753906 1.398438 14.429688 1.359375 C 13.113281 1.324219 12.082031 2.058594 11.46875 3.5 C 11.378906 3.707031 11.253906 3.679688 11.105469 3.679688 C 10.351562 3.679688 9.898438 3.671875 9.144531 3.683594 C 8.539062 3.695312 8.03125 4.035156 7.929688 4.558594 C 7.789062 5.285156 7.878906 6.027344 7.859375 6.773438 " fill-opacity="1" fill-rule="nonzero"/></g><path fill="#ffffff" d="M 6.121094 30.164062 C 6.121094 30.566406 6.445312 30.894531 6.851562 30.894531 L 21.902344 30.894531 C 22.304688 30.894531 22.632812 30.566406 22.632812 30.164062 C 22.632812 29.757812 22.304688 29.429688 21.902344 29.429688 L 6.851562 29.429688 C 6.445312 29.429688 6.121094 29.757812 6.121094 30.164062 " fill-opacity="1" fill-rule="nonzero"/><path fill="#ffffff" d="M 10.617188 11.511719 C 10.617188 11.917969 10.945312 12.246094 11.347656 12.246094 L 21.753906 12.246094 C 22.160156 12.246094 22.488281 11.917969 22.488281 11.511719 C 22.488281 11.109375 22.160156 10.78125 21.753906 10.78125 L 11.347656 10.78125 C 10.945312 10.78125 10.617188 11.109375 10.617188 11.511719 " fill-opacity="1" fill-rule="nonzero"/><path fill="#ffffff" d="M 11.347656 16.898438 L 18 16.898438 C 18.40625 16.898438 18.734375 16.570312 18.734375 16.167969 C 18.734375 15.761719 18.40625 15.433594 18 15.433594 L 11.347656 15.433594 C 10.945312 15.433594 10.617188 15.761719 10.617188 16.167969 C 10.617188 16.570312 10.945312 16.898438 11.347656 16.898438 " fill-opacity="1" fill-rule="nonzero"/><path fill="#ffffff" d="M 18.871094 20.09375 L 11.347656 20.09375 C 11.148438 20.09375 10.964844 20.175781 10.832031 20.308594 C 10.695312 20.441406 10.613281 20.628906 10.617188 20.835938 C 10.621094 21.238281 10.957031 21.558594 11.359375 21.558594 L 17.554688 21.558594 C 17.566406 21.558594 17.578125 21.554688 17.585938 21.542969 L 18.902344 20.175781 C 18.933594 20.144531 18.910156 20.09375 18.871094 20.09375 " fill-opacity="1" fill-rule="nonzero"/><path fill="#ffffff" d="M 15.851562 26.226562 C 15.871094 26.226562 15.890625 26.214844 15.898438 26.195312 L 16.335938 24.828125 C 16.347656 24.792969 16.324219 24.761719 16.289062 24.761719 L 11.347656 24.761719 C 11.148438 24.761719 10.964844 24.84375 10.832031 24.976562 C 10.695312 25.113281 10.613281 25.296875 10.617188 25.503906 C 10.621094 25.90625 10.957031 26.226562 11.359375 26.226562 L 15.851562 26.226562 " fill-opacity="1" fill-rule="nonzero"/><path fill="#ffffff" d="M 6.96875 11.617188 C 6.980469 11.5625 7.007812 11.519531 7.050781 11.484375 C 7.085938 11.460938 7.125 11.449219 7.167969 11.449219 C 7.179688 11.449219 7.191406 11.449219 7.199219 11.453125 C 7.253906 11.460938 7.300781 11.488281 7.332031 11.535156 L 7.660156 11.972656 L 8.347656 10.925781 C 8.382812 10.863281 8.449219 10.828125 8.519531 10.828125 C 8.554688 10.828125 8.589844 10.835938 8.621094 10.855469 C 8.667969 10.882812 8.699219 10.925781 8.714844 10.980469 C 8.726562 11.03125 8.71875 11.085938 8.691406 11.128906 L 7.921875 12.320312 C 7.898438 12.359375 7.855469 12.433594 7.753906 12.464844 C 7.738281 12.46875 7.710938 12.476562 7.675781 12.480469 C 7.621094 12.480469 7.511719 12.457031 7.417969 12.324219 L 7.003906 11.765625 C 6.972656 11.722656 6.960938 11.667969 6.96875 11.617188 Z M 6.121094 11.511719 C 6.121094 12.460938 6.890625 13.238281 7.84375 13.238281 C 8.792969 13.238281 9.566406 12.460938 9.566406 11.511719 C 9.566406 10.5625 8.792969 9.789062 7.84375 9.789062 C 6.890625 9.789062 6.121094 10.5625 6.121094 11.511719 " fill-opacity="1" fill-rule="nonzero"/><path fill="#ffffff" d="M 6.96875 16.269531 C 6.980469 16.214844 7.007812 16.171875 7.050781 16.140625 C 7.085938 16.117188 7.125 16.101562 7.167969 16.101562 C 7.179688 16.101562 7.191406 16.105469 7.199219 16.105469 C 7.253906 16.113281 7.300781 16.144531 7.332031 16.1875 L 7.660156 16.628906 L 8.347656 15.578125 C 8.382812 15.515625 8.449219 15.480469 8.519531 15.480469 C 8.554688 15.480469 8.589844 15.488281 8.621094 15.507812 C 8.667969 15.535156 8.699219 15.578125 8.714844 15.632812 C 8.726562 15.683594 8.71875 15.738281 8.691406 15.785156 L 7.921875 16.972656 C 7.898438 17.011719 7.855469 17.089844 7.753906 17.121094 C 7.738281 17.125 7.710938 17.132812 7.675781 17.132812 C 7.621094 17.132812 7.511719 17.113281 7.417969 16.976562 L 7.003906 16.417969 C 6.972656 16.375 6.960938 16.324219 6.96875 16.269531 Z M 7.84375 17.890625 C 8.792969 17.890625 9.566406 17.117188 9.566406 16.167969 C 9.566406 15.214844 8.792969 14.441406 7.84375 14.441406 C 6.890625 14.441406 6.121094 15.214844 6.121094 16.167969 C 6.121094 17.117188 6.890625 17.890625 7.84375 17.890625 " fill-opacity="1" fill-rule="nonzero"/><path fill="#ffffff" d="M 6.96875 20.929688 C 6.980469 20.878906 7.007812 20.832031 7.050781 20.800781 C 7.085938 20.777344 7.125 20.765625 7.167969 20.761719 C 7.179688 20.761719 7.191406 20.765625 7.199219 20.765625 C 7.253906 20.773438 7.300781 20.804688 7.332031 20.847656 L 7.660156 21.289062 L 8.347656 20.238281 C 8.382812 20.179688 8.449219 20.140625 8.519531 20.140625 C 8.554688 20.140625 8.589844 20.152344 8.621094 20.167969 C 8.667969 20.195312 8.699219 20.242188 8.714844 20.292969 C 8.726562 20.34375 8.71875 20.398438 8.691406 20.445312 L 7.921875 21.632812 C 7.898438 21.671875 7.855469 21.75 7.753906 21.78125 C 7.738281 21.785156 7.710938 21.792969 7.675781 21.792969 C 7.621094 21.792969 7.511719 21.773438 7.417969 21.636719 L 7.003906 21.082031 C 6.972656 21.039062 6.960938 20.984375 6.96875 20.929688 Z M 7.84375 22.550781 C 8.792969 22.550781 9.566406 21.777344 9.566406 20.828125 C 9.566406 19.875 8.792969 19.101562 7.84375 19.101562 C 6.890625 19.101562 6.121094 19.875 6.121094 20.828125 C 6.121094 21.777344 6.890625 22.550781 7.84375 22.550781 " fill-opacity="1" fill-rule="nonzero"/><path fill="#ffffff" d="M 6.96875 25.597656 C 6.980469 25.546875 7.007812 25.5 7.050781 25.46875 C 7.085938 25.445312 7.125 25.433594 7.167969 25.433594 C 7.179688 25.433594 7.191406 25.433594 7.199219 25.433594 C 7.253906 25.445312 7.300781 25.472656 7.332031 25.515625 L 7.660156 25.957031 L 8.347656 24.910156 C 8.382812 24.847656 8.449219 24.808594 8.519531 24.808594 C 8.554688 24.808594 8.589844 24.820312 8.621094 24.835938 C 8.667969 24.867188 8.699219 24.910156 8.714844 24.960938 C 8.726562 25.011719 8.71875 25.066406 8.691406 25.113281 L 7.921875 26.304688 C 7.898438 26.339844 7.855469 26.417969 7.753906 26.449219 C 7.738281 26.453125 7.710938 26.460938 7.675781 26.460938 C 7.621094 26.460938 7.511719 26.441406 7.417969 26.304688 L 7.003906 25.75 C 6.972656 25.707031 6.960938 25.652344 6.96875 25.597656 Z M 7.84375 27.21875 C 8.792969 27.21875 9.566406 26.445312 9.566406 25.496094 C 9.566406 24.542969 8.792969 23.773438 7.84375 23.773438 C 6.890625 23.773438 6.121094 24.542969 6.121094 25.496094 C 6.121094 26.445312 6.890625 27.21875 7.84375 27.21875 " fill-opacity="1" fill-rule="nonzero"/><path fill="#ffffff" d="M 28.011719 10.9375 L 27.984375 10.96875 Z M 28.011719 10.9375 " fill-opacity="1" fill-rule="nonzero"/><path fill="#ffffff" d="M 19.105469 22.027344 C 20.652344 22.511719 21.703125 23.535156 22.242188 25.058594 C 25.363281 21.816406 28.476562 18.585938 31.558594 15.382812 C 30.515625 14.378906 29.457031 13.359375 28.417969 12.359375 C 25.328125 15.566406 22.222656 18.792969 19.105469 22.027344 " fill-opacity="1" fill-rule="nonzero"/><path fill="#ffffff" d="M 18.496094 22.941406 C 18.046875 24.347656 17.59375 25.757812 17.125 27.21875 C 18.585938 26.6875 19.988281 26.179688 21.382812 25.671875 C 21.203125 24.300781 19.667969 22.851562 18.496094 22.941406 " fill-opacity="1" fill-rule="nonzero"/></svg>