<svg xmlns="http://www.w3.org/2000/svg" xmlns:xlink="http://www.w3.org/1999/xlink" width="50" zoomAndPan="magnify" viewBox="0 0 37.5 37.499999" height="50" preserveAspectRatio="xMidYMid meet" version="1.0"><defs><g/></defs><g fill="#ffffff" fill-opacity="1"><g transform="translate(7.84366, 13.61842)"><g><path d="M 8.34375 -1.78125 L 8.34375 -6.578125 L 6.28125 -8.296875 L 0.515625 -8.296875 L 0.515625 -6.484375 L 1.421875 -6.234375 L 1.421875 -2.03125 L 0.515625 -1.796875 L 0.515625 0 L 6.21875 0 Z M 3.875 -6.234375 L 5.40625 -6.234375 L 5.890625 -5.828125 L 5.890625 -2.46875 L 5.375 -2.03125 L 3.875 -2.03125 Z M 3.875 -6.234375 "/></g></g></g><g fill="#ffffff" fill-opacity="1"><g transform="translate(16.713414, 13.61842)"><g/></g></g><g fill="#ffffff" fill-opacity="1"><g transform="translate(21.260791, 13.61842)"><g><path d="M 7.3125 -6.9375 L 5.703125 -8.296875 L 2.078125 -8.296875 L 0.46875 -6.9375 L 0.46875 -4.671875 L 1.890625 -3.515625 L 4.71875 -3.046875 L 4.953125 -2.84375 L 4.953125 -2.28125 L 4.65625 -2.03125 L 2.921875 -2.03125 L 2.6875 -2.90625 L 0.46875 -2.90625 L 0.46875 -1.390625 L 2.15625 0 L 5.71875 0 L 7.421875 -1.390625 L 7.421875 -3.765625 L 6.03125 -4.84375 L 3.171875 -5.3125 L 2.90625 -5.515625 L 2.90625 -6 L 3.21875 -6.234375 L 4.875 -6.234375 L 5.109375 -5.375 L 7.3125 -5.375 Z M 7.3125 -6.9375 "/></g></g></g><g fill="#ffffff" fill-opacity="1"><g transform="translate(9.419039, 23.311657)"><g><path d="M 4.15625 -0.890625 L 4.15625 -3.265625 L 3.125 -4.125 L 0.265625 -4.125 L 0.265625 -3.21875 L 0.703125 -3.109375 L 0.703125 -1.015625 L 0.265625 -0.890625 L 0.265625 0 L 3.09375 0 Z M 1.921875 -3.109375 L 2.6875 -3.109375 L 2.9375 -2.890625 L 2.9375 -1.21875 L 2.671875 -1.015625 L 1.921875 -1.015625 Z M 1.921875 -3.109375 "/></g></g></g><g fill="#ffffff" fill-opacity="1"><g transform="translate(13.829034, 23.311657)"><g><path d="M 4.15625 -0.90625 L 3.71875 -1.015625 L 3.71875 -3.453125 L 2.90625 -4.125 L 1.109375 -4.125 L 0.3125 -3.453125 L 0.3125 -2.671875 L 1.40625 -2.671875 L 1.53125 -3.109375 L 2.34375 -3.109375 L 2.5 -2.984375 L 2.5 -2.59375 L 0.953125 -2.34375 L 0.265625 -1.8125 L 0.265625 -0.6875 L 1.09375 0 L 2.28125 0 L 2.671875 -0.328125 L 2.78125 0 L 4.15625 0 Z M 1.59375 -1.453125 L 2.5 -1.65625 L 2.5 -1.140625 L 2.34375 -1.015625 L 1.625 -1.015625 L 1.484375 -1.140625 L 1.484375 -1.359375 Z M 1.59375 -1.453125 "/></g></g></g><g fill="#ffffff" fill-opacity="1"><g transform="translate(18.103608, 23.311657)"><g><path d="M 4.203125 -2.421875 L 4.203125 -4.125 L 0.09375 -4.125 L 0.09375 -2.421875 L 0.96875 -2.421875 L 1.09375 -3.171875 L 1.546875 -3.171875 L 1.546875 -1.015625 L 1.046875 -0.890625 L 1.046875 0 L 3.265625 0 L 3.265625 -0.890625 L 2.765625 -1.015625 L 2.765625 -3.171875 L 3.21875 -3.171875 L 3.328125 -2.421875 Z M 4.203125 -2.421875 "/></g></g></g><g fill="#ffffff" fill-opacity="1"><g transform="translate(22.395844, 23.311657)"><g><path d="M 4.15625 -0.90625 L 3.71875 -1.015625 L 3.71875 -3.453125 L 2.90625 -4.125 L 1.109375 -4.125 L 0.3125 -3.453125 L 0.3125 -2.671875 L 1.40625 -2.671875 L 1.53125 -3.109375 L 2.34375 -3.109375 L 2.5 -2.984375 L 2.5 -2.59375 L 0.953125 -2.34375 L 0.265625 -1.8125 L 0.265625 -0.6875 L 1.09375 0 L 2.28125 0 L 2.671875 -0.328125 L 2.78125 0 L 4.15625 0 Z M 1.59375 -1.453125 L 2.5 -1.65625 L 2.5 -1.140625 L 2.34375 -1.015625 L 1.625 -1.015625 L 1.484375 -1.140625 L 1.484375 -1.359375 Z M 1.59375 -1.453125 "/></g></g></g><g fill="#ffffff" fill-opacity="1"><g transform="translate(7.602101, 31.162055)"><g><path d="M 3.640625 -3.453125 L 2.84375 -4.125 L 1.03125 -4.125 L 0.234375 -3.453125 L 0.234375 -2.328125 L 0.9375 -1.75 L 2.34375 -1.515625 L 2.46875 -1.40625 L 2.46875 -1.140625 L 2.3125 -1.015625 L 1.453125 -1.015625 L 1.34375 -1.4375 L 0.234375 -1.4375 L 0.234375 -0.6875 L 1.078125 0 L 2.84375 0 L 3.6875 -0.6875 L 3.6875 -1.875 L 3 -2.40625 L 1.578125 -2.640625 L 1.453125 -2.75 L 1.453125 -2.984375 L 1.609375 -3.109375 L 2.421875 -3.109375 L 2.53125 -2.671875 L 3.640625 -2.671875 Z M 3.640625 -3.453125 "/></g></g></g><g fill="#ffffff" fill-opacity="1"><g transform="translate(11.529292, 31.162055)"><g><path d="M 4.140625 -3.40625 L 3.28125 -4.125 L 0.265625 -4.125 L 0.265625 -3.21875 L 0.703125 -3.109375 L 0.703125 -1.015625 L 0.265625 -0.890625 L 0.265625 0 L 2.375 0 L 2.375 -0.890625 L 1.921875 -1 L 1.921875 -1.421875 L 3.28125 -1.421875 L 4.140625 -2.125 Z M 2.765625 -3.109375 L 2.921875 -2.984375 L 2.921875 -2.5625 L 2.765625 -2.4375 L 1.921875 -2.4375 L 1.921875 -3.109375 Z M 2.765625 -3.109375 "/></g></g></g><g fill="#ffffff" fill-opacity="1"><g transform="translate(15.833304, 31.162055)"><g><path d="M 3.734375 -0.734375 L 3.734375 -3.40625 L 2.875 -4.125 L 1.125 -4.125 L 0.265625 -3.40625 L 0.265625 -0.734375 L 1.15625 0 L 2.828125 0 C 2.984375 -0.125 3.132812 -0.242188 3.28125 -0.359375 C 3.425781 -0.484375 3.578125 -0.609375 3.734375 -0.734375 Z M 2.359375 -3.109375 L 2.515625 -2.984375 L 2.515625 -1.15625 L 2.34375 -1.015625 L 1.640625 -1.015625 L 1.46875 -1.15625 L 1.46875 -2.984375 L 1.625 -3.109375 Z M 2.359375 -3.109375 "/></g></g></g><g fill="#ffffff" fill-opacity="1"><g transform="translate(19.819371, 31.162055)"><g><path d="M 1.921875 -3.109375 L 2.765625 -3.109375 L 2.90625 -2.984375 L 2.90625 -2.546875 L 2.765625 -2.4375 L 1.921875 -2.4375 Z M 2.375 0 L 2.375 -0.890625 L 1.921875 -1.015625 L 1.921875 -1.609375 L 2.234375 -1.609375 L 3.171875 0 L 4.296875 0 L 4.296875 -0.953125 L 3.984375 -1.015625 L 3.53125 -1.71875 L 4.125 -2.21875 L 4.125 -3.453125 L 3.328125 -4.125 L 0.265625 -4.125 L 0.265625 -3.21875 L 0.703125 -3.109375 L 0.703125 -1.015625 L 0.265625 -0.890625 L 0.265625 0 Z M 2.375 0 "/></g></g></g><g fill="#ffffff" fill-opacity="1"><g transform="translate(24.194035, 31.162055)"><g><path d="M 4.203125 -2.421875 L 4.203125 -4.125 L 0.09375 -4.125 L 0.09375 -2.421875 L 0.96875 -2.421875 L 1.09375 -3.171875 L 1.546875 -3.171875 L 1.546875 -1.015625 L 1.046875 -0.890625 L 1.046875 0 L 3.265625 0 L 3.265625 -0.890625 L 2.765625 -1.015625 L 2.765625 -3.171875 L 3.21875 -3.171875 L 3.328125 -2.421875 Z M 4.203125 -2.421875 "/></g></g></g></svg>