<svg xmlns="http://www.w3.org/2000/svg" xmlns:xlink="http://www.w3.org/1999/xlink" width="50" zoomAndPan="magnify" viewBox="0 0 37.5 37.499999" height="50" preserveAspectRatio="xMidYMid meet" version="1.0"><defs><clipPath id="e297dc3735"><path d="M 3.699219 1.527344 L 29.605469 1.527344 L 29.605469 35.574219 L 3.699219 35.574219 Z M 3.699219 1.527344 " clip-rule="nonzero"/></clipPath><clipPath id="fa759ce44f"><path d="M 5 4.652344 L 11 4.652344 L 11 11 L 5 11 Z M 5 4.652344 " clip-rule="nonzero"/></clipPath><clipPath id="88e8fbb9fb"><path d="M 2.113281 10 L 18 10 L 18 29.074219 L 2.113281 29.074219 Z M 2.113281 10 " clip-rule="nonzero"/></clipPath><clipPath id="80c5f17454"><path d="M 12 5 L 35.421875 5 L 35.421875 24 L 12 24 Z M 12 5 " clip-rule="nonzero"/></clipPath></defs><g clip-path="url(#e297dc3735)"><path fill="#ffffff" d="M 29.21875 17.855469 C 29.199219 17.785156 29.179688 17.710938 29.15625 17.640625 C 29.140625 17.59375 29.125 17.550781 29.113281 17.507812 C 29.105469 17.480469 29.09375 17.453125 29.085938 17.429688 C 29.066406 17.367188 29.042969 17.308594 29.023438 17.246094 C 29.019531 17.238281 29.015625 17.230469 29.015625 17.222656 C 28.664062 16.265625 28.148438 15.390625 27.484375 14.609375 L 27.457031 14.578125 L 27.453125 14.578125 C 26.628906 13.625 25.613281 12.871094 24.480469 12.359375 C 23.097656 11.542969 21.242188 10.511719 19.746094 9.679688 C 18.546875 9.015625 17.507812 8.4375 17.15625 8.21875 L 17.078125 8.34375 L 17.15625 8.21875 C 15.398438 7.128906 13.644531 6.027344 11.890625 4.921875 L 9.265625 3.257812 C 8.832031 2.976562 8.394531 2.699219 7.960938 2.414062 C 7.746094 2.273438 7.527344 2.132812 7.3125 1.988281 C 7.203125 1.917969 7.097656 1.84375 6.992188 1.769531 C 6.9375 1.734375 6.882812 1.699219 6.832031 1.660156 L 6.679688 1.539062 L 6.832031 1.660156 C 6.882812 1.703125 6.933594 1.738281 6.988281 1.777344 C 7.09375 1.851562 7.199219 1.929688 7.304688 2 C 7.515625 2.148438 7.730469 2.296875 7.945312 2.441406 C 8.371094 2.734375 8.804688 3.019531 9.234375 3.308594 L 11.824219 5.027344 C 12.214844 5.285156 12.609375 5.542969 13 5.800781 C 12.609375 5.851562 11.8125 5.921875 11.320312 5.730469 L 7.96875 3.519531 L 7.898438 3.621094 L 7.964844 3.519531 C 7.460938 3.21875 6.957031 2.914062 6.457031 2.601562 C 6.210938 2.445312 5.960938 2.285156 5.71875 2.121094 C 5.59375 2.039062 5.472656 1.957031 5.355469 1.871094 C 5.296875 1.828125 5.238281 1.78125 5.179688 1.734375 C 5.125 1.6875 5.066406 1.644531 5.027344 1.578125 C 5.0625 1.644531 5.117188 1.695312 5.171875 1.746094 C 5.222656 1.796875 5.28125 1.847656 5.335938 1.894531 C 5.449219 1.988281 5.5625 2.082031 5.679688 2.171875 C 5.914062 2.355469 6.148438 2.53125 6.386719 2.703125 C 6.703125 2.933594 7.023438 3.160156 7.339844 3.386719 L 4.398438 2.796875 L 7.847656 3.738281 L 11.132812 5.90625 L 11.128906 5.917969 C 11.152344 5.929688 11.175781 5.941406 11.199219 5.949219 L 11.289062 6.007812 L 12.988281 7.308594 C 12.03125 7.039062 10.691406 6.738281 10.488281 6.691406 C 10.113281 6.441406 7.421875 5.148438 6.765625 4.898438 L 6.738281 4.859375 C 6.714844 4.824219 6.6875 4.800781 6.664062 4.769531 C 6.613281 4.710938 6.558594 4.660156 6.507812 4.605469 C 6.402344 4.5 6.296875 4.402344 6.1875 4.304688 C 5.96875 4.105469 5.746094 3.917969 5.523438 3.730469 C 5.078125 3.359375 4.621094 2.996094 4.164062 2.640625 C 4.59375 3.027344 5.023438 3.421875 5.441406 3.824219 C 5.648438 4.027344 5.855469 4.230469 6.058594 4.4375 C 6.15625 4.542969 6.253906 4.648438 6.347656 4.753906 C 6.367188 4.777344 6.386719 4.800781 6.40625 4.820312 C 6.375 4.816406 6.347656 4.8125 6.316406 4.808594 L 5.992188 4.746094 L 5.335938 4.625 L 4.023438 4.371094 L 5.304688 4.746094 L 5.949219 4.929688 L 6.269531 5.019531 C 6.378906 5.046875 6.480469 5.078125 6.601562 5.105469 C 6.839844 5.144531 10.132812 6.722656 10.347656 6.898438 C 10.433594 6.984375 11.160156 8.019531 11.695312 8.792969 L 7.898438 8 L 3.996094 6.082031 L 7.648438 8.140625 L 5.804688 9.851562 L 3.847656 9.917969 L 5.808594 10.097656 L 8.53125 12.144531 L 6.410156 14.492188 L 6.417969 14.5 L 3.789062 14.871094 L 6.5 14.734375 L 8.621094 17.789062 L 6.339844 20.804688 L 3.699219 21.417969 L 6.347656 21.050781 L 8.511719 24.695312 L 6.21875 28.90625 L 4.054688 29 L 6.214844 29.148438 L 8.003906 32.984375 C 7.765625 33.363281 7.523438 33.742188 7.289062 34.125 L 6.890625 34.773438 C 6.761719 34.992188 6.628906 35.210938 6.503906 35.429688 C 6.65625 35.226562 6.804688 35.019531 6.953125 34.816406 L 7.398438 34.195312 C 7.683594 33.792969 7.96875 33.386719 8.25 32.980469 L 9.171875 32.671875 C 9.492188 32.566406 9.808594 32.453125 10.125 32.34375 C 10.445312 32.234375 10.761719 32.125 11.078125 32.011719 C 11.351562 31.914062 11.625 31.820312 11.898438 31.71875 L 12.050781 32.554688 C 12.113281 32.878906 12.171875 33.203125 12.234375 33.523438 C 12.359375 34.171875 12.492188 34.816406 12.636719 35.457031 C 12.566406 34.804688 12.480469 34.152344 12.390625 33.5 C 12.347656 33.171875 12.296875 32.847656 12.25 32.523438 L 12.113281 31.609375 L 14.832031 28.050781 C 15.027344 28.007812 15.796875 27.84375 16.601562 27.644531 C 17.195312 27.988281 17.828125 28.261719 18.484375 28.457031 L 18.558594 31.058594 C 18.355469 31.390625 18.160156 31.726562 17.96875 32.0625 C 17.765625 32.410156 17.570312 32.757812 17.382812 33.109375 C 17.191406 33.464844 17.007812 33.820312 16.832031 34.179688 C 16.660156 34.542969 16.492188 34.90625 16.355469 35.28125 C 16.511719 34.914062 16.699219 34.558594 16.890625 34.210938 C 17.082031 33.859375 17.285156 33.515625 17.492188 33.171875 C 17.695312 32.832031 17.910156 32.492188 18.125 32.160156 C 18.332031 31.839844 18.542969 31.523438 18.757812 31.207031 L 21.566406 30.796875 C 21.566406 31.128906 21.558594 31.464844 21.542969 31.796875 C 21.523438 32.183594 21.496094 32.566406 21.457031 32.949219 C 21.417969 33.328125 21.367188 33.710938 21.285156 34.085938 C 21.246094 34.273438 21.199219 34.460938 21.140625 34.644531 C 21.078125 34.824219 21.003906 35.003906 20.894531 35.164062 C 21.011719 35.007812 21.097656 34.832031 21.167969 34.652344 C 21.238281 34.472656 21.296875 34.289062 21.347656 34.101562 C 21.449219 33.726562 21.519531 33.347656 21.582031 32.964844 C 21.640625 32.582031 21.691406 32.199219 21.730469 31.8125 C 21.765625 31.441406 21.796875 31.070312 21.8125 30.691406 L 23.308594 28.480469 C 24.128906 28.246094 24.890625 27.894531 25.578125 27.453125 L 25.582031 27.453125 L 25.621094 27.429688 C 25.800781 27.3125 25.976562 27.1875 26.144531 27.058594 L 26.273438 27.058594 L 26.242188 27.125 C 26.15625 27.300781 26.074219 27.472656 25.992188 27.648438 C 25.828125 27.996094 25.667969 28.347656 25.507812 28.699219 C 25.191406 29.402344 24.875 30.105469 24.566406 30.8125 C 24.257812 31.515625 23.953125 32.222656 23.648438 32.933594 C 23.5 33.289062 23.347656 33.640625 23.203125 34 C 23.128906 34.175781 23.054688 34.355469 22.984375 34.53125 C 22.945312 34.621094 22.914062 34.710938 22.878906 34.800781 C 22.863281 34.847656 22.84375 34.890625 22.828125 34.9375 L 22.785156 35.074219 L 22.832031 34.9375 C 22.847656 34.894531 22.867188 34.851562 22.886719 34.804688 C 22.921875 34.714844 22.960938 34.628906 23 34.539062 C 23.074219 34.363281 23.152344 34.1875 23.230469 34.011719 C 23.386719 33.660156 23.546875 33.308594 23.707031 32.957031 C 24.027344 32.257812 24.351562 31.558594 24.679688 30.863281 C 25.007812 30.164062 25.339844 29.472656 25.675781 28.777344 C 25.84375 28.433594 26.015625 28.085938 26.1875 27.742188 C 26.273438 27.574219 26.359375 27.398438 26.449219 27.230469 L 26.585938 26.976562 L 26.722656 26.734375 L 26.621094 26.671875 L 26.722656 26.734375 C 26.796875 26.617188 26.890625 26.476562 27 26.316406 C 27.519531 25.800781 27.976562 25.214844 28.347656 24.582031 L 28.371094 24.546875 L 28.371094 24.535156 C 29.507812 22.582031 29.882812 20.195312 29.21875 17.855469 Z M 23.167969 28.089844 C 22.175781 28.371094 21.171875 28.453125 20.199219 28.363281 C 20.367188 28.277344 20.488281 28.199219 20.558594 28.148438 C 20.65625 28.15625 20.824219 28.171875 21.054688 28.171875 C 21.613281 28.171875 22.523438 28.089844 23.546875 27.679688 L 23.296875 28.050781 C 23.253906 28.0625 23.210938 28.074219 23.167969 28.089844 Z M 15.6875 10.601562 C 16.164062 10.605469 19.097656 11.222656 19.535156 11.390625 C 19.617188 11.421875 19.808594 11.511719 20.058594 11.636719 C 19.984375 11.644531 19.910156 11.652344 19.835938 11.660156 C 18.898438 11.78125 17.980469 12.058594 17.132812 12.476562 C 16.730469 12.675781 16.34375 12.90625 15.976562 13.164062 C 15.882812 13.226562 14.953125 14.003906 14.957031 14.007812 C 14.957031 14.007812 13.214844 12.347656 13.214844 12.347656 Z M 20.558594 27.726562 C 19.914062 27.449219 19.367188 27.03125 18.96875 26.671875 C 19.644531 25.980469 21.1875 24.40625 21.390625 24.226562 C 21.515625 24.121094 22.566406 23.871094 23.773438 23.625 L 24.667969 24.382812 C 24.5 25.644531 24.253906 26.429688 24.140625 26.738281 C 24.011719 26.921875 23.914062 27.035156 23.871094 27.078125 C 22.234375 27.890625 20.765625 27.753906 20.558594 27.726562 Z M 24.652344 25.875 C 24.734375 25.527344 24.820312 25.09375 24.894531 24.578125 L 25.109375 24.757812 C 24.964844 25.195312 24.808594 25.566406 24.652344 25.875 Z M 27.765625 22.941406 C 26.742188 23.949219 25.714844 24.351562 25.398438 24.460938 L 24.957031 24.085938 C 24.984375 23.851562 25.007812 23.605469 25.027344 23.34375 C 25.371094 23.101562 27.363281 21.679688 27.953125 20.78125 C 28.011719 20.785156 28.097656 20.789062 28.203125 20.789062 C 28.15625 21.390625 28.042969 22.148438 27.765625 22.941406 Z M 18.367188 26.050781 L 19.46875 23.613281 C 19.863281 23.597656 20.367188 23.527344 20.875 23.4375 L 21.160156 24.101562 C 20.796875 24.449219 19.417969 25.855469 18.789062 26.5 C 18.59375 26.308594 18.449219 26.144531 18.367188 26.050781 Z M 15.589844 20.675781 L 15.042969 19.9375 C 15.695312 20.054688 16.769531 20.242188 17.382812 20.332031 C 17.433594 20.441406 17.488281 20.554688 17.539062 20.660156 Z M 14.707031 19.453125 C 14.285156 17.96875 14.390625 16.882812 14.410156 16.707031 C 14.476562 16.570312 14.859375 15.824219 15.964844 14.851562 C 17.148438 14.867188 18.667969 14.898438 19.464844 14.953125 L 19.875 17.300781 C 18.660156 18.40625 17.699219 19.578125 17.433594 19.917969 C 16.660156 19.804688 15.148438 19.535156 14.707031 19.453125 Z M 19.992188 15.015625 C 20.226562 15.113281 21.722656 16.660156 22.671875 17.671875 L 22.273438 18.082031 C 21.441406 17.695312 20.582031 17.347656 20.285156 17.226562 L 19.894531 14.992188 C 19.941406 15 19.972656 15.007812 19.992188 15.015625 Z M 23.492188 18.703125 C 23.210938 18.539062 22.871094 18.367188 22.511719 18.195312 L 22.910156 17.78125 C 23.496094 17.585938 24.882812 17.503906 25.824219 17.46875 C 25.136719 17.941406 23.855469 18.539062 23.492188 18.703125 Z M 25.460938 14.535156 C 25.578125 14.835938 26.132812 16.304688 26.058594 17.210938 C 25.140625 17.238281 23.578125 17.316406 22.878906 17.53125 C 22.425781 17.046875 20.863281 15.382812 20.265625 14.90625 C 21.007812 14.445312 22.304688 13.628906 22.835938 13.242188 C 23.453125 13.441406 24.492188 13.847656 25.460938 14.535156 Z M 22.535156 13.152344 C 21.976562 13.539062 20.820312 14.269531 20.019531 14.765625 C 19.976562 14.757812 19.921875 14.746094 19.851562 14.738281 L 19.785156 14.367188 C 20.003906 14.167969 20.761719 13.5625 22.335938 13.097656 C 22.378906 13.109375 22.445312 13.125 22.535156 13.152344 Z M 16.75 14.222656 C 16.929688 14.175781 17.914062 13.957031 19.378906 14.453125 L 19.421875 14.703125 C 18.570312 14.644531 17.136719 14.617188 16.253906 14.605469 C 16.410156 14.480469 16.574219 14.351562 16.75 14.222656 Z M 21.371094 23.960938 L 21.125 23.390625 C 21.953125 23.238281 22.738281 23.050781 23.019531 22.980469 L 23.535156 23.417969 C 22.703125 23.589844 21.75 23.804688 21.371094 23.960938 Z M 23.296875 22.675781 C 23.648438 20.824219 23.6875 19.488281 23.6875 19.070312 C 24.128906 18.871094 25.597656 18.183594 26.257812 17.667969 C 26.421875 17.777344 26.742188 18 27.09375 18.3125 C 27.449219 19.257812 27.703125 20.386719 27.753906 20.628906 C 27.199219 21.5 25.089844 22.996094 24.859375 23.160156 C 24.703125 23.1875 24.40625 23.246094 24.050781 23.316406 Z M 24.769531 23.429688 C 24.757812 23.589844 24.742188 23.742188 24.726562 23.890625 L 24.296875 23.519531 C 24.453125 23.488281 24.613281 23.460938 24.769531 23.429688 Z M 27.988281 20.535156 C 27.929688 20.265625 27.75 19.476562 27.492188 18.6875 C 27.746094 18.949219 28 19.246094 28.203125 19.574219 C 28.214844 19.695312 28.238281 20.046875 28.214844 20.539062 C 28.132812 20.539062 28.054688 20.539062 27.988281 20.535156 Z M 28.617188 19.566406 C 28.703125 19.449219 28.863281 19.1875 29.007812 18.796875 C 29.101562 19.328125 29.140625 19.859375 29.128906 20.386719 C 29.003906 20.453125 28.824219 20.492188 28.636719 20.515625 C 28.652344 20.054688 28.632812 19.714844 28.617188 19.566406 Z M 25.699219 14.195312 C 25.328125 13.933594 24.953125 13.710938 24.59375 13.523438 C 25.128906 13.648438 25.683594 13.769531 26.085938 13.832031 C 26.253906 13.96875 26.417969 14.109375 26.574219 14.257812 C 26.335938 14.21875 26.0625 14.199219 25.699219 14.195312 Z M 23.175781 12.910156 C 23.28125 12.785156 23.4375 12.605469 23.578125 12.449219 C 24.3125 12.699219 25.007812 13.054688 25.640625 13.5 C 24.78125 13.328125 23.617188 13.027344 23.175781 12.910156 Z M 16.472656 13.910156 C 16.152344 14.148438 15.871094 14.378906 15.621094 14.601562 C 15.605469 14.601562 15.589844 14.601562 15.578125 14.597656 L 15.257812 14.292969 C 15.71875 13.851562 16.230469 13.457031 16.796875 13.128906 C 16.660156 13.355469 16.539062 13.621094 16.472656 13.910156 Z M 13.726562 22.335938 C 13.777344 21.34375 14.421875 20.21875 14.640625 19.867188 C 14.65625 19.867188 14.671875 19.871094 14.6875 19.875 L 15.375 20.804688 L 13.953125 22.917969 C 13.878906 22.738281 13.800781 22.542969 13.726562 22.335938 Z M 15.59375 20.925781 L 17.660156 20.910156 C 18.316406 22.230469 18.902344 23.140625 19.097656 23.429688 L 17.988281 25.875 C 16.628906 25.898438 15.539062 25.363281 15.382812 25.285156 C 15.285156 25.195312 14.699219 24.613281 14.070312 23.191406 Z M 28.34375 23.582031 C 28.292969 23.328125 28.21875 23.144531 28.171875 23.042969 C 28.460938 22.195312 28.578125 21.394531 28.621094 20.769531 C 28.792969 20.75 28.96875 20.71875 29.117188 20.664062 C 29.09375 21.105469 29.03125 21.539062 28.9375 21.964844 C 28.78125 22.542969 28.574219 23.085938 28.34375 23.582031 Z M 22.925781 12.824219 C 22.8125 12.765625 22.617188 12.664062 22.371094 12.535156 C 22.277344 12.402344 22.140625 12.234375 21.941406 12.070312 C 22.410156 12.128906 22.871094 12.230469 23.320312 12.367188 C 23.175781 12.527344 23.019531 12.707031 22.925781 12.824219 Z M 15.359375 14.734375 L 13.898438 16.523438 C 13.765625 16.570312 13.644531 16.621094 13.539062 16.679688 C 13.929688 15.867188 14.449219 15.117188 15.082031 14.46875 Z M 13.347656 22.511719 C 13.457031 22.808594 13.566406 23.082031 13.675781 23.332031 L 13.484375 23.617188 C 13.3125 23.242188 13.164062 22.847656 13.050781 22.4375 C 13.023438 22.34375 13 22.25 12.976562 22.15625 C 13.136719 22.351562 13.265625 22.457031 13.347656 22.511719 Z M 13.796875 23.597656 C 14.363281 24.804688 14.882812 25.375 15.0625 25.554688 C 15.078125 25.707031 15.105469 25.855469 15.140625 25.996094 C 14.527344 25.386719 14.007812 24.675781 13.609375 23.878906 Z M 11.800781 6.085938 C 11.9375 6.097656 12.074219 6.105469 12.210938 6.105469 C 12.753906 6.105469 13.242188 6.019531 13.273438 6.011719 L 13.269531 5.976562 C 14.519531 6.796875 15.769531 7.617188 17.023438 8.429688 C 17.382812 8.652344 18.371094 9.203125 19.625 9.898438 C 20.726562 10.511719 22.019531 11.230469 23.175781 11.890625 C 22.875 11.71875 22.347656 11.703125 22.011719 11.660156 C 21.578125 11.605469 21.132812 11.582031 20.699219 11.59375 C 20.648438 11.597656 20.597656 11.597656 20.546875 11.601562 C 20.164062 11.410156 19.847656 11.253906 19.6875 11.183594 L 19.691406 11.171875 C 18.914062 10.582031 17.722656 9.675781 17.640625 9.59375 C 17.484375 9.4375 13.910156 7.621094 13.875 7.601562 C 13.824219 7.578125 13.757812 7.550781 13.675781 7.519531 Z M 10.742188 7.007812 C 11.507812 7.183594 13.339844 7.617188 13.761719 7.824219 C 14.429688 8.160156 17.304688 9.636719 17.464844 9.769531 C 17.550781 9.855469 18.457031 10.546875 19.050781 10.996094 C 18.03125 10.746094 16.09375 10.351562 15.671875 10.351562 L 12.113281 8.882812 L 12.050781 8.867188 C 11.878906 8.621094 11.128906 7.539062 10.742188 7.007812 Z M 7.859375 8.117188 Z M 6.046875 9.964844 L 7.898438 8.253906 L 12.039062 9.121094 L 15.390625 10.503906 L 12.984375 12.207031 L 8.757812 12.003906 Z M 6.683594 14.5625 L 8.769531 12.253906 L 12.96875 12.457031 L 14.78125 14.183594 C 13.875 15.113281 13.1875 16.234375 12.777344 17.460938 C 12.769531 17.46875 12.765625 17.480469 12.761719 17.488281 L 12.757812 17.507812 L 8.835938 17.664062 Z M 6.414062 20.917969 Z M 6.5625 20.925781 L 8.835938 17.914062 L 12.675781 17.757812 C 12.402344 18.6875 12.285156 19.640625 12.332031 20.601562 C 12.332031 20.609375 12.332031 20.621094 12.332031 20.628906 C 12.335938 20.679688 12.339844 20.726562 12.34375 20.777344 C 12.34375 20.808594 12.347656 20.839844 12.347656 20.875 C 12.351562 20.90625 12.355469 20.9375 12.359375 20.972656 C 12.363281 21.019531 12.367188 21.066406 12.371094 21.113281 C 12.371094 21.125 12.375 21.136719 12.375 21.148438 L 12.378906 21.183594 C 12.433594 21.640625 12.519531 22.09375 12.648438 22.550781 C 12.796875 23.066406 12.988281 23.554688 13.214844 24.015625 L 12.980469 24.363281 L 8.707031 24.535156 Z M 6.296875 29.027344 Z M 11.902344 31.472656 C 11.601562 31.574219 11.300781 31.679688 10.996094 31.78125 C 10.679688 31.890625 10.363281 32 10.046875 32.113281 C 9.730469 32.226562 9.410156 32.335938 9.097656 32.449219 L 8.183594 32.78125 L 6.4375 29.03125 L 8.75 24.78125 L 12.976562 24.613281 L 14.613281 27.921875 Z M 14.828125 27.796875 L 13.195312 24.496094 L 13.34375 24.269531 C 13.894531 25.292969 14.632812 26.175781 15.503906 26.882812 L 15.507812 26.890625 L 15.539062 26.914062 C 15.785156 27.109375 16.039062 27.292969 16.300781 27.460938 C 15.648438 27.617188 15.054688 27.746094 14.828125 27.796875 Z M 19.34375 28.667969 L 19.394531 28.675781 L 19.402344 28.675781 C 19.90625 28.765625 20.417969 28.816406 20.9375 28.816406 C 21.601562 28.816406 22.273438 28.738281 22.941406 28.578125 L 21.621094 30.535156 L 18.804688 30.949219 L 18.738281 28.527344 C 18.9375 28.582031 19.140625 28.628906 19.34375 28.667969 Z M 21.691406 30.652344 Z M 18.683594 31.09375 Z M 23.976562 27.488281 C 23.988281 27.484375 23.996094 27.480469 24.007812 27.472656 C 24.164062 27.527344 24.316406 27.570312 24.480469 27.59375 C 24.222656 27.714844 23.957031 27.828125 23.683594 27.921875 Z M 23.976562 27.488281 " fill-opacity="1" fill-rule="nonzero"/></g><path fill="#ffffff" d="M 19.007812 19.15625 C 19.007812 19.382812 19.191406 19.570312 19.421875 19.570312 C 20.59375 19.570312 21.695312 19.113281 22.523438 18.285156 C 23.351562 17.457031 23.808594 16.355469 23.808594 15.183594 L 23.808594 14.550781 C 23.808594 12.605469 25.203125 10.902344 27.09375 10.5 L 26.914062 10.679688 C 26.835938 10.757812 26.792969 10.859375 26.792969 10.972656 C 26.792969 11.082031 26.835938 11.183594 26.914062 11.261719 C 26.992188 11.339844 27.09375 11.382812 27.203125 11.382812 C 27.316406 11.382812 27.417969 11.339844 27.496094 11.261719 L 28.472656 10.289062 C 28.550781 10.210938 28.59375 10.105469 28.59375 9.996094 C 28.59375 9.882812 28.550781 9.78125 28.472656 9.703125 L 27.496094 8.726562 C 27.417969 8.648438 27.316406 8.605469 27.203125 8.605469 C 27.09375 8.605469 26.992188 8.648438 26.914062 8.726562 C 26.835938 8.804688 26.792969 8.910156 26.792969 9.019531 C 26.792969 9.128906 26.835938 9.234375 26.914062 9.3125 L 27.234375 9.632812 C 26.179688 9.785156 25.191406 10.28125 24.4375 11.039062 C 23.496094 11.976562 22.980469 13.222656 22.980469 14.550781 L 22.980469 15.183594 C 22.980469 17.144531 21.382812 18.742188 19.421875 18.742188 C 19.191406 18.742188 19.007812 18.929688 19.007812 19.15625 " fill-opacity="1" fill-rule="nonzero"/><path fill="#ffffff" d="M 17.15625 18.453125 C 17.542969 18.453125 17.859375 18.769531 17.859375 19.15625 C 17.859375 19.542969 17.542969 19.859375 17.15625 19.859375 C 16.769531 19.859375 16.453125 19.542969 16.453125 19.15625 C 16.453125 18.769531 16.769531 18.453125 17.15625 18.453125 Z M 17.15625 20.6875 C 18 20.6875 18.6875 20 18.6875 19.15625 C 18.6875 18.3125 18 17.625 17.15625 17.625 C 16.3125 17.625 15.628906 18.3125 15.628906 19.15625 C 15.628906 20 16.3125 20.6875 17.15625 20.6875 " fill-opacity="1" fill-rule="nonzero"/><path fill="#ffffff" d="M 30.3125 9.292969 C 30.699219 9.292969 31.011719 9.609375 31.011719 9.996094 C 31.011719 10.382812 30.699219 10.699219 30.3125 10.699219 C 29.921875 10.699219 29.609375 10.382812 29.609375 9.996094 C 29.609375 9.609375 29.921875 9.292969 30.3125 9.292969 Z M 30.3125 11.523438 C 31.152344 11.523438 31.839844 10.839844 31.839844 9.996094 C 31.839844 9.152344 31.152344 8.464844 30.3125 8.464844 C 29.46875 8.464844 28.78125 9.152344 28.78125 9.996094 C 28.78125 10.839844 29.46875 11.523438 30.3125 11.523438 " fill-opacity="1" fill-rule="nonzero"/><path fill="#ffffff" d="M 27.148438 14.574219 L 27.972656 13.75 C 28.132812 13.589844 28.132812 13.328125 27.972656 13.167969 C 27.8125 13.007812 27.546875 13.003906 27.386719 13.167969 L 26.5625 13.992188 L 25.738281 13.167969 C 25.578125 13.007812 25.316406 13.007812 25.15625 13.167969 C 25.078125 13.246094 25.035156 13.347656 25.035156 13.460938 C 25.035156 13.570312 25.078125 13.671875 25.15625 13.75 L 25.980469 14.574219 L 25.15625 15.398438 C 25.078125 15.476562 25.035156 15.582031 25.035156 15.691406 C 25.035156 15.800781 25.078125 15.90625 25.15625 15.984375 C 25.234375 16.0625 25.335938 16.105469 25.449219 16.105469 C 25.558594 16.105469 25.660156 16.0625 25.738281 15.984375 L 26.5625 15.160156 L 27.386719 15.984375 C 27.464844 16.0625 27.570312 16.105469 27.679688 16.105469 C 27.789062 16.105469 27.894531 16.0625 27.972656 15.984375 C 28.050781 15.90625 28.09375 15.800781 28.09375 15.691406 C 28.09375 15.582031 28.050781 15.476562 27.972656 15.398438 L 27.148438 14.574219 " fill-opacity="1" fill-rule="nonzero"/><path fill="#ffffff" d="M 18.375 15.691406 C 18.375 15.800781 18.417969 15.90625 18.496094 15.984375 C 18.574219 16.0625 18.675781 16.105469 18.785156 16.105469 C 18.898438 16.105469 19 16.0625 19.078125 15.984375 L 19.902344 15.160156 L 20.726562 15.984375 C 20.804688 16.0625 20.90625 16.105469 21.019531 16.105469 C 21.128906 16.105469 21.234375 16.0625 21.3125 15.984375 C 21.390625 15.90625 21.433594 15.800781 21.433594 15.691406 C 21.433594 15.582031 21.390625 15.476562 21.3125 15.398438 L 20.488281 14.574219 L 21.3125 13.75 C 21.390625 13.675781 21.433594 13.570312 21.433594 13.460938 C 21.433594 13.351562 21.390625 13.253906 21.320312 13.175781 L 21.3125 13.167969 C 21.148438 13.007812 20.886719 13.007812 20.726562 13.167969 L 19.902344 13.992188 L 19.078125 13.167969 C 18.917969 13.007812 18.65625 13.003906 18.496094 13.167969 C 18.417969 13.246094 18.375 13.347656 18.375 13.460938 C 18.375 13.570312 18.417969 13.675781 18.496094 13.75 L 19.316406 14.574219 L 18.496094 15.398438 C 18.417969 15.476562 18.375 15.582031 18.375 15.691406 " fill-opacity="1" fill-rule="nonzero"/><g clip-path="url(#fa759ce44f)"><path fill="#ffffff" d="M 8 5.480469 C 6.9375 5.480469 6.074219 6.34375 6.074219 7.410156 C 6.074219 8.472656 6.9375 9.335938 8 9.335938 C 9.0625 9.335938 9.929688 8.472656 9.929688 7.410156 C 9.929688 6.34375 9.0625 5.480469 8 5.480469 Z M 8 10.164062 C 6.480469 10.164062 5.242188 8.929688 5.242188 7.410156 C 5.242188 5.886719 6.480469 4.652344 8 4.652344 C 9.519531 4.652344 10.757812 5.886719 10.757812 7.410156 C 10.757812 8.929688 9.519531 10.164062 8 10.164062 " fill-opacity="1" fill-rule="nonzero"/></g><g clip-path="url(#88e8fbb9fb)"><path fill="#ffffff" d="M 7.734375 19.386719 C 8.136719 19.386719 8.460938 19.699219 8.476562 20.101562 L 8.75 27.945312 C 8.757812 28.160156 8.933594 28.328125 9.148438 28.328125 L 9.199219 28.328125 C 9.410156 28.328125 9.585938 28.160156 9.59375 27.949219 L 10.265625 13.339844 C 10.273438 13.160156 10.394531 13.007812 10.5625 12.960938 C 10.734375 12.910156 10.917969 12.976562 11.019531 13.121094 L 12.136719 14.730469 C 12.316406 14.992188 12.664062 15.09375 12.957031 14.964844 L 15.96875 13.664062 C 16.109375 13.601562 16.160156 13.492188 16.175781 13.429688 C 16.195312 13.367188 16.214844 13.246094 16.128906 13.121094 C 16.035156 12.976562 15.84375 12.917969 15.683594 12.984375 L 12.773438 14.179688 C 12.582031 14.257812 12.363281 14.183594 12.257812 14.003906 L 10.605469 11.179688 C 10.503906 11.003906 10.316406 10.894531 10.109375 10.894531 L 9.695312 10.894531 C 9.210938 11.273438 8.617188 11.480469 8 11.480469 C 7.386719 11.480469 6.789062 11.273438 6.304688 10.894531 L 5.214844 10.894531 C 4.941406 10.894531 4.714844 11.078125 4.652344 11.34375 L 3.003906 18.558594 C 2.980469 18.652344 3 18.753906 3.050781 18.835938 C 3.105469 18.921875 3.1875 18.976562 3.285156 19 L 3.507812 19.046875 C 3.703125 19.089844 3.894531 18.972656 3.941406 18.78125 L 5.210938 13.878906 C 5.265625 13.675781 5.460938 13.542969 5.671875 13.574219 C 5.878906 13.601562 6.03125 13.785156 6.027344 13.996094 L 5.644531 27.921875 C 5.640625 28.027344 5.679688 28.128906 5.753906 28.207031 C 5.832031 28.285156 5.929688 28.328125 6.039062 28.328125 C 6.246094 28.328125 6.421875 28.167969 6.433594 27.960938 L 6.992188 20.078125 C 7.019531 19.6875 7.34375 19.386719 7.734375 19.386719 Z M 9.199219 29.15625 L 9.148438 29.15625 C 8.484375 29.15625 7.945312 28.636719 7.921875 27.972656 L 7.703125 21.738281 L 7.261719 28.019531 C 7.214844 28.65625 6.679688 29.15625 6.039062 29.15625 C 5.707031 29.15625 5.394531 29.023438 5.160156 28.785156 C 4.929688 28.546875 4.804688 28.230469 4.8125 27.898438 L 5.097656 17.625 L 4.746094 18.988281 C 4.582031 19.613281 3.964844 19.992188 3.332031 19.859375 L 3.109375 19.808594 C 2.792969 19.742188 2.523438 19.554688 2.351562 19.28125 C 2.179688 19.007812 2.125 18.6875 2.195312 18.371094 L 3.84375 11.15625 C 3.992188 10.515625 4.554688 10.066406 5.214844 10.066406 L 6.453125 10.066406 C 6.554688 10.066406 6.652344 10.101562 6.726562 10.171875 C 7.082031 10.480469 7.53125 10.652344 8 10.652344 C 8.46875 10.652344 8.917969 10.480469 9.273438 10.171875 C 9.347656 10.101562 9.445312 10.066406 9.546875 10.066406 L 10.109375 10.066406 C 10.609375 10.066406 11.070312 10.332031 11.324219 10.761719 L 12.792969 13.273438 L 15.367188 12.21875 C 15.894531 12 16.503906 12.1875 16.820312 12.660156 C 17.015625 12.957031 17.074219 13.324219 16.972656 13.664062 C 16.871094 14.003906 16.625 14.28125 16.300781 14.421875 L 13.285156 15.726562 C 12.632812 16.007812 11.863281 15.789062 11.457031 15.203125 L 11.035156 14.601562 L 10.421875 27.988281 C 10.394531 28.644531 9.855469 29.15625 9.199219 29.15625 " fill-opacity="1" fill-rule="nonzero"/></g><g clip-path="url(#80c5f17454)"><path fill="#ffffff" d="M 34.933594 5.894531 L 12.535156 5.894531 C 12.28125 5.894531 12.078125 6.097656 12.078125 6.351562 L 12.078125 10.347656 C 12.078125 10.527344 12.1875 10.691406 12.351562 10.765625 C 12.652344 10.894531 12.988281 10.675781 12.988281 10.347656 L 12.988281 6.804688 L 34.480469 6.804688 L 34.480469 22.347656 L 12.988281 22.347656 L 12.988281 17.578125 C 12.988281 17.347656 12.816406 17.152344 12.585938 17.125 C 12.316406 17.097656 12.078125 17.304688 12.078125 17.578125 L 12.078125 22.800781 C 12.078125 23.050781 12.28125 23.253906 12.535156 23.253906 L 34.933594 23.253906 C 35.183594 23.253906 35.386719 23.050781 35.386719 22.800781 L 35.386719 6.351562 C 35.386719 6.097656 35.183594 5.894531 34.933594 5.894531 " fill-opacity="1" fill-rule="nonzero"/></g></svg>