<svg xmlns="http://www.w3.org/2000/svg" xmlns:xlink="http://www.w3.org/1999/xlink" width="50" zoomAndPan="magnify" viewBox="0 0 37.5 37.499999" height="50" preserveAspectRatio="xMidYMid meet" version="1.0"><defs><clipPath id="0c9602073c"><path d="M 0.378906 11 L 11 11 L 11 28 L 0.378906 28 Z M 0.378906 11 " clip-rule="nonzero"/></clipPath><clipPath id="cb452b1eda"><path d="M 12 4.394531 L 24 4.394531 L 24 28 L 12 28 Z M 12 4.394531 " clip-rule="nonzero"/></clipPath><clipPath id="a67bbfa98a"><path d="M 0.378906 20 L 12 20 L 12 33.257812 L 0.378906 33.257812 Z M 0.378906 20 " clip-rule="nonzero"/></clipPath><clipPath id="a12562cd6f"><path d="M 12 20 L 25 20 L 25 33.257812 L 12 33.257812 Z M 12 20 " clip-rule="nonzero"/></clipPath><clipPath id="0201d04089"><path d="M 25 20 L 36.644531 20 L 36.644531 33.257812 L 25 33.257812 Z M 25 20 " clip-rule="nonzero"/></clipPath></defs><g clip-path="url(#0c9602073c)"><path fill="#ffffff" d="M 1.507812 26.621094 L 1.507812 18.441406 C 2.699219 17.648438 3.886719 18.128906 5.277344 18.667969 C 6.152344 19.007812 7.117188 19.402344 8.105469 19.402344 C 8.757812 19.402344 9.410156 19.234375 10.089844 18.808594 C 10.371094 18.609375 10.597656 18.242188 10.597656 17.902344 L 10.597656 12.976562 C 10.597656 12.71875 10.457031 12.492188 10.257812 12.351562 C 10.03125 12.238281 9.75 12.238281 9.496094 12.410156 C 8.304688 13.203125 7.117188 12.71875 5.730469 12.183594 C 4.257812 11.617188 2.585938 10.9375 0.914062 12.070312 C 0.632812 12.265625 0.40625 12.636719 0.40625 12.976562 L 0.40625 27.273438 C 0.632812 27.105469 0.800781 26.992188 0.886719 26.960938 Z M 9.4375 17.84375 Z M 1.507812 13.003906 C 2.699219 12.210938 3.886719 12.691406 5.277344 13.230469 C 6.550781 13.738281 7.992188 14.304688 9.4375 13.683594 L 9.4375 17.816406 C 8.25 18.609375 7.058594 18.128906 5.671875 17.589844 C 4.792969 17.25 3.832031 16.855469 2.839844 16.855469 C 2.386719 16.855469 1.960938 16.9375 1.507812 17.109375 Z M 1.507812 13.003906 " fill-opacity="1" fill-rule="nonzero"/></g><g clip-path="url(#cb452b1eda)"><path fill="#ffffff" d="M 13.96875 26.621094 L 13.96875 11.925781 C 15.15625 11.132812 16.347656 11.617188 17.734375 12.152344 C 18.613281 12.492188 19.574219 12.890625 20.566406 12.890625 C 21.21875 12.890625 21.867188 12.71875 22.546875 12.296875 C 22.832031 12.097656 23.058594 11.730469 23.058594 11.390625 L 23.058594 6.460938 C 23.058594 6.207031 22.914062 5.980469 22.71875 5.839844 C 22.492188 5.726562 22.207031 5.726562 21.953125 5.894531 C 20.765625 6.6875 19.574219 6.207031 18.1875 5.667969 C 16.714844 5.101562 15.042969 4.421875 13.375 5.554688 C 13.089844 5.753906 12.863281 6.121094 12.863281 6.460938 L 12.863281 27.273438 C 13.089844 27.105469 13.261719 26.992188 13.34375 26.960938 Z M 21.894531 11.332031 Z M 13.96875 6.492188 C 15.15625 5.699219 16.347656 6.179688 17.734375 6.71875 C 19.007812 7.226562 20.453125 7.792969 21.894531 7.171875 L 21.894531 11.304688 C 20.707031 12.097656 19.519531 11.617188 18.128906 11.078125 C 17.253906 10.738281 16.289062 10.339844 15.300781 10.339844 C 14.847656 10.339844 14.421875 10.425781 13.96875 10.597656 Z M 13.96875 6.492188 " fill-opacity="1" fill-rule="nonzero"/></g><path fill="#ffffff" d="M 26.425781 26.621094 L 26.425781 18.441406 C 27.617188 17.648438 28.804688 18.128906 30.191406 18.667969 C 31.070312 19.007812 32.035156 19.402344 33.023438 19.402344 C 33.675781 19.402344 34.328125 19.234375 35.007812 18.808594 C 35.289062 18.609375 35.515625 18.242188 35.515625 17.902344 L 35.515625 12.976562 C 35.515625 12.71875 35.375 12.492188 35.175781 12.351562 C 34.949219 12.238281 34.667969 12.238281 34.410156 12.410156 C 33.222656 13.203125 32.035156 12.71875 30.644531 12.183594 C 29.171875 11.617188 27.503906 10.9375 25.832031 12.070312 C 25.550781 12.265625 25.324219 12.636719 25.324219 12.976562 L 25.324219 27.273438 C 25.550781 27.105469 25.71875 26.992188 25.804688 26.960938 Z M 34.355469 17.84375 Z M 26.425781 14.304688 L 26.425781 13.03125 C 27.617188 12.238281 28.804688 12.71875 30.191406 13.257812 C 31.46875 13.769531 32.910156 14.332031 34.355469 13.710938 L 34.355469 17.84375 C 33.164062 18.636719 31.976562 18.15625 30.589844 17.617188 C 29.710938 17.277344 28.75 16.882812 27.757812 16.882812 C 27.304688 16.882812 26.878906 16.96875 26.425781 17.136719 Z M 26.425781 14.304688 " fill-opacity="1" fill-rule="nonzero"/><g clip-path="url(#a67bbfa98a)"><path fill="#ffffff" d="M 10.710938 27.980469 L 8.304688 26.734375 L 8.304688 25.460938 C 8.390625 25.207031 8.445312 24.953125 8.445312 24.667969 L 8.445312 22.6875 C 8.445312 21.355469 7.371094 20.28125 6.039062 20.28125 C 4.710938 20.28125 3.632812 21.355469 3.632812 22.6875 L 3.632812 24.667969 C 3.632812 24.953125 3.691406 25.234375 3.773438 25.460938 L 3.773438 26.734375 C 3.773438 26.734375 1.367188 27.980469 1.367188 27.980469 C 0.605469 28.378906 0.378906 29.226562 0.378906 30.019531 L 0.378906 32.710938 C 0.378906 33.023438 0.632812 33.277344 0.941406 33.277344 C 1.253906 33.277344 1.507812 33.023438 1.507812 32.710938 L 1.507812 30.019531 C 1.507812 29.652344 1.507812 29.171875 1.878906 28.972656 L 4.171875 27.785156 C 4.171875 27.785156 5.53125 30.160156 5.53125 30.191406 C 5.757812 30.558594 6.324219 30.558594 6.550781 30.191406 L 7.910156 27.785156 C 7.910156 27.785156 10.175781 28.972656 10.203125 28.972656 C 10.570312 29.171875 10.597656 29.652344 10.570312 30.019531 L 10.570312 32.710938 C 10.570312 33.023438 10.824219 33.277344 11.136719 33.277344 C 11.449219 33.277344 11.703125 33.023438 11.703125 32.710938 L 11.703125 30.046875 C 11.703125 29.226562 11.476562 28.378906 10.710938 27.980469 Z M 7.171875 26.792969 L 6.039062 28.773438 L 4.90625 26.792969 L 4.90625 26.765625 C 5.246094 26.933594 5.644531 27.046875 6.039062 27.046875 C 6.4375 27.046875 6.832031 26.933594 7.171875 26.765625 Z M 7.3125 24.640625 C 7.3125 25.347656 6.746094 25.914062 6.039062 25.914062 C 5.332031 25.914062 4.765625 25.347656 4.765625 24.640625 L 4.765625 22.660156 C 4.765625 21.949219 5.332031 21.382812 6.039062 21.382812 C 6.746094 21.382812 7.3125 21.949219 7.3125 22.660156 Z M 7.3125 24.640625 " fill-opacity="1" fill-rule="nonzero"/></g><g clip-path="url(#a12562cd6f)"><path fill="#ffffff" d="M 23.171875 27.980469 L 20.765625 26.734375 L 20.765625 25.460938 C 20.847656 25.207031 20.90625 24.953125 20.90625 24.667969 L 20.90625 22.6875 C 20.90625 21.355469 19.828125 20.28125 18.5 20.28125 C 17.167969 20.28125 16.09375 21.355469 16.09375 22.6875 L 16.09375 24.667969 C 16.09375 24.953125 16.148438 25.234375 16.234375 25.460938 L 16.234375 26.734375 C 16.234375 26.734375 13.828125 27.980469 13.828125 27.980469 C 13.0625 28.378906 12.835938 29.226562 12.835938 30.019531 L 12.835938 32.710938 C 12.835938 33.023438 13.089844 33.277344 13.402344 33.277344 C 13.714844 33.277344 13.96875 33.023438 13.96875 32.710938 L 13.96875 30.019531 C 13.96875 29.652344 13.96875 29.171875 14.335938 28.972656 L 16.628906 27.785156 C 16.628906 27.785156 17.988281 30.160156 17.988281 30.191406 C 18.214844 30.558594 18.78125 30.558594 19.007812 30.191406 L 20.367188 27.785156 C 20.367188 27.785156 22.632812 28.972656 22.660156 28.972656 C 23.027344 29.171875 23.058594 29.652344 23.027344 30.019531 L 23.027344 32.710938 C 23.027344 33.023438 23.285156 33.277344 23.59375 33.277344 C 23.90625 33.277344 24.160156 33.023438 24.160156 32.710938 L 24.160156 30.046875 C 24.160156 29.226562 23.933594 28.378906 23.171875 27.980469 Z M 19.632812 26.792969 L 18.5 28.773438 L 17.367188 26.792969 L 17.367188 26.765625 C 17.707031 26.933594 18.101562 27.046875 18.5 27.046875 C 18.894531 27.046875 19.292969 26.933594 19.632812 26.765625 Z M 19.773438 24.640625 C 19.773438 25.347656 19.207031 25.914062 18.5 25.914062 C 17.789062 25.914062 17.222656 25.347656 17.222656 24.640625 L 17.222656 22.660156 C 17.222656 21.949219 17.789062 21.382812 18.5 21.382812 C 19.207031 21.382812 19.773438 21.949219 19.773438 22.660156 Z M 19.773438 24.640625 " fill-opacity="1" fill-rule="nonzero"/></g><g clip-path="url(#0201d04089)"><path fill="#ffffff" d="M 35.628906 27.980469 L 33.222656 26.734375 L 33.222656 25.460938 C 33.308594 25.207031 33.363281 24.953125 33.363281 24.667969 L 33.363281 22.6875 C 33.363281 21.355469 32.289062 20.28125 30.957031 20.28125 C 29.625 20.28125 28.550781 21.355469 28.550781 22.6875 L 28.550781 24.667969 C 28.550781 24.953125 28.605469 25.234375 28.691406 25.460938 L 28.691406 26.734375 C 28.691406 26.734375 26.285156 27.980469 26.285156 27.980469 C 25.519531 28.378906 25.292969 29.226562 25.292969 30.019531 L 25.292969 32.710938 C 25.292969 33.023438 25.550781 33.277344 25.859375 33.277344 C 26.171875 33.277344 26.425781 33.023438 26.425781 32.710938 L 26.425781 30.019531 C 26.425781 29.652344 26.425781 29.171875 26.796875 28.972656 L 29.089844 27.785156 C 29.089844 27.785156 30.449219 30.160156 30.449219 30.191406 C 30.675781 30.558594 31.242188 30.558594 31.46875 30.191406 L 32.824219 27.785156 C 32.824219 27.785156 35.089844 28.972656 35.121094 28.972656 C 35.488281 29.171875 35.515625 29.652344 35.488281 30.019531 L 35.488281 32.710938 C 35.488281 33.023438 35.742188 33.277344 36.054688 33.277344 C 36.367188 33.277344 36.621094 33.023438 36.621094 32.710938 L 36.621094 30.046875 C 36.621094 29.226562 36.394531 28.378906 35.628906 27.980469 Z M 32.089844 26.792969 L 30.957031 28.773438 L 29.824219 26.792969 L 29.824219 26.765625 C 30.164062 26.933594 30.5625 27.046875 30.957031 27.046875 C 31.355469 27.046875 31.75 26.933594 32.089844 26.765625 Z M 32.230469 24.640625 C 32.230469 25.347656 31.664062 25.914062 30.957031 25.914062 C 30.25 25.914062 29.683594 25.347656 29.683594 24.640625 L 29.683594 22.660156 C 29.683594 21.949219 30.25 21.382812 30.957031 21.382812 C 31.664062 21.382812 32.230469 21.949219 32.230469 22.660156 Z M 32.230469 24.640625 " fill-opacity="1" fill-rule="nonzero"/></g><path fill="#ffffff" d="M 21.867188 15.382812 L 21.386719 14.363281 C 21.300781 14.164062 21.105469 14.023438 20.878906 14.023438 C 20.652344 14.023438 20.453125 14.136719 20.367188 14.363281 L 19.886719 15.382812 L 18.78125 15.550781 C 18.582031 15.578125 18.386719 15.722656 18.328125 15.917969 C 18.273438 16.117188 18.300781 16.34375 18.46875 16.484375 L 19.261719 17.308594 L 19.066406 18.46875 C 19.035156 18.695312 19.121094 18.894531 19.292969 19.035156 C 19.460938 19.148438 19.714844 19.175781 19.886719 19.0625 L 20.847656 18.523438 C 20.847656 18.523438 21.785156 19.0625 21.8125 19.0625 C 21.980469 19.148438 22.234375 19.148438 22.40625 19.035156 C 22.574219 18.921875 22.660156 18.695312 22.632812 18.46875 L 22.460938 17.308594 L 23.253906 16.484375 C 23.398438 16.34375 23.453125 16.117188 23.398438 15.917969 C 23.339844 15.722656 23.140625 15.578125 22.945312 15.550781 Z M 21.445312 16.710938 C 21.332031 16.855469 21.273438 17.023438 21.300781 17.195312 L 21.359375 17.476562 L 21.160156 17.363281 C 21.074219 17.308594 20.992188 17.277344 20.878906 17.277344 C 20.765625 17.277344 20.679688 17.308594 20.59375 17.363281 L 20.394531 17.476562 L 20.453125 17.195312 C 20.480469 17.023438 20.425781 16.824219 20.3125 16.710938 L 20.085938 16.484375 L 20.367188 16.429688 C 20.566406 16.402344 20.707031 16.289062 20.792969 16.117188 L 20.90625 15.890625 L 21.019531 16.117188 C 21.105469 16.289062 21.246094 16.402344 21.445312 16.429688 L 21.726562 16.484375 Z M 21.445312 16.710938 " fill-opacity="1" fill-rule="nonzero"/><path fill="#ffffff" d="M 6.292969 8.8125 L 6.097656 9.972656 C 6.066406 10.199219 6.152344 10.398438 6.324219 10.539062 C 6.492188 10.652344 6.746094 10.679688 6.917969 10.566406 L 7.878906 10.03125 C 7.878906 10.03125 8.84375 10.566406 8.84375 10.566406 C 9.011719 10.679688 9.269531 10.652344 9.4375 10.539062 C 9.609375 10.425781 9.691406 10.199219 9.664062 9.972656 L 9.464844 8.8125 L 10.257812 7.992188 C 10.402344 7.851562 10.457031 7.625 10.402344 7.425781 C 10.34375 7.226562 10.144531 7.085938 9.949219 7.058594 L 8.871094 6.886719 L 8.390625 5.867188 C 8.304688 5.667969 8.105469 5.527344 7.878906 5.527344 C 7.652344 5.527344 7.457031 5.640625 7.371094 5.867188 L 6.890625 6.886719 L 5.8125 7.058594 C 5.617188 7.085938 5.417969 7.226562 5.359375 7.425781 C 5.304688 7.625 5.332031 7.851562 5.503906 7.992188 Z M 7.371094 7.964844 C 7.570312 7.933594 7.710938 7.820312 7.796875 7.652344 L 7.910156 7.425781 L 8.023438 7.652344 C 8.105469 7.820312 8.25 7.933594 8.445312 7.964844 L 8.730469 8.019531 L 8.503906 8.246094 C 8.390625 8.386719 8.332031 8.558594 8.363281 8.726562 L 8.417969 9.011719 L 8.21875 8.898438 C 8.136719 8.839844 8.050781 8.8125 7.9375 8.8125 C 7.851562 8.8125 7.738281 8.839844 7.652344 8.898438 L 7.457031 9.011719 L 7.511719 8.726562 C 7.539062 8.558594 7.484375 8.359375 7.371094 8.246094 L 7.144531 8.019531 Z M 7.371094 7.964844 " fill-opacity="1" fill-rule="nonzero"/></svg>