<svg xmlns="http://www.w3.org/2000/svg" xmlns:xlink="http://www.w3.org/1999/xlink" width="50" zoomAndPan="magnify" viewBox="0 0 37.5 37.499999" height="50" preserveAspectRatio="xMidYMid meet" version="1.0"><defs><clipPath id="f79949b322"><path d="M 5.148438 9.222656 L 31.839844 9.222656 L 31.839844 34.359375 L 5.148438 34.359375 Z M 5.148438 9.222656 " clip-rule="nonzero"/></clipPath><clipPath id="e98d11c2e5"><path d="M 1.097656 2.535156 L 35.886719 2.535156 L 35.886719 20 L 1.097656 20 Z M 1.097656 2.535156 " clip-rule="nonzero"/></clipPath></defs><g clip-path="url(#f79949b322)"><path fill="#ffffff" d="M 31.664062 20.625 L 19.066406 9.496094 C 18.738281 9.207031 18.25 9.207031 17.921875 9.496094 L 5.324219 20.625 C 5.230469 20.707031 5.179688 20.824219 5.179688 20.949219 L 5.179688 34.035156 C 5.179688 34.277344 5.371094 34.46875 5.609375 34.46875 L 14.464844 34.46875 C 14.703125 34.46875 14.898438 34.277344 14.898438 34.035156 L 14.898438 25.675781 C 14.898438 24.722656 15.671875 23.949219 16.625 23.949219 L 20.363281 23.949219 C 21.316406 23.949219 22.089844 24.722656 22.089844 25.675781 L 22.089844 34.035156 C 22.089844 34.277344 22.285156 34.46875 22.523438 34.46875 L 31.378906 34.46875 C 31.617188 34.46875 31.8125 34.277344 31.8125 34.035156 L 31.8125 20.949219 C 31.8125 20.824219 31.757812 20.707031 31.664062 20.625 " fill-opacity="1" fill-rule="nonzero"/></g><g clip-path="url(#e98d11c2e5)"><path fill="#ffffff" d="M 35.136719 16.304688 L 20.773438 3.683594 C 19.46875 2.539062 17.519531 2.539062 16.214844 3.683594 L 1.851562 16.304688 C 1.144531 16.929688 1.109375 18.019531 1.777344 18.683594 C 2.386719 19.292969 3.363281 19.324219 4.007812 18.753906 L 17.351562 7.003906 C 18.003906 6.429688 18.984375 6.429688 19.636719 7.003906 L 32.980469 18.753906 C 33.625 19.324219 34.605469 19.292969 35.210938 18.683594 C 35.878906 18.019531 35.84375 16.925781 35.136719 16.304688 " fill-opacity="1" fill-rule="nonzero"/></g></svg>