<svg xmlns="http://www.w3.org/2000/svg" xmlns:xlink="http://www.w3.org/1999/xlink" width="500" zoomAndPan="magnify" viewBox="0 0 375 374.999991" height="500" preserveAspectRatio="xMidYMid meet" version="1.0"><defs><clipPath id="id1"><path d="M 112.5 133.96875 L 262.5 133.96875 L 262.5 236 L 112.5 236 Z M 112.5 133.96875 " clip-rule="nonzero"/></clipPath><clipPath id="id2"><path d="M 112.5 235 L 262.5 235 L 262.5 241.21875 L 112.5 241.21875 Z M 112.5 235 " clip-rule="nonzero"/></clipPath></defs><g clip-path="url(#id1)"><path fill="#8b1d40" d="M 152.515625 133.96875 L 222.484375 133.96875 L 262.472656 235.117188 L 112.527344 235.117188 L 152.515625 133.96875 " fill-opacity="1" fill-rule="nonzero"/></g><path fill="#ec4c36" d="M 129.09375 223.960938 L 157.671875 136.625 L 217.328125 136.625 L 245.90625 223.960938 L 129.09375 223.960938 " fill-opacity="1" fill-rule="nonzero"/><path fill="#c52541" d="M 210.171875 136.625 L 164.757812 136.625 C 163.644531 141.078125 171.851562 145.023438 183.1875 145.023438 L 191.738281 145.023438 C 203.070312 145.023438 211.28125 141.078125 210.171875 136.625 " fill-opacity="1" fill-rule="nonzero"/><path fill="#c52541" d="M 231.898438 223.960938 L 142.964844 223.960938 C 146.6875 209.035156 163.421875 198.652344 180.863281 198.652344 L 194.019531 198.652344 C 211.460938 198.652344 228.1875 209.035156 231.898438 223.960938 " fill-opacity="1" fill-rule="nonzero"/><path fill="#ffffff" d="M 157.851562 136.714844 L 129.613281 223.609375 L 245.386719 223.609375 L 217.148438 136.714844 Z M 128.570312 224.3125 L 157.496094 136.535156 L 217.503906 136.535156 L 246.429688 224.3125 L 128.570312 224.3125 " fill-opacity="1" fill-rule="nonzero"/><path fill="#ffffff" d="M 147.960938 166.308594 L 148.0625 165.988281 L 226.9375 165.988281 L 227.039062 166.308594 L 147.960938 166.308594 " fill-opacity="1" fill-rule="nonzero"/><path fill="#ffffff" d="M 187.5 143.339844 C 187.832031 143.339844 188.097656 143.210938 188.097656 143.054688 C 188.097656 142.902344 187.828125 142.773438 187.5 142.773438 C 187.171875 142.773438 186.902344 142.902344 186.902344 143.054688 C 186.902344 143.210938 187.167969 143.339844 187.5 143.339844 " fill-opacity="1" fill-rule="nonzero"/><path fill="#ffffff" d="M 187.5 166.582031 C 187.910156 166.582031 188.242188 166.386719 188.238281 166.148438 C 188.238281 165.910156 187.90625 165.71875 187.5 165.71875 C 187.09375 165.71875 186.761719 165.910156 186.761719 166.148438 C 186.757812 166.386719 187.089844 166.582031 187.5 166.582031 " fill-opacity="1" fill-rule="nonzero"/><path fill="#ffffff" d="M 186.085938 146.722656 L 186.089844 146.496094 L 188.910156 146.496094 L 188.914062 146.722656 L 186.085938 146.722656 " fill-opacity="1" fill-rule="nonzero"/><path fill="#ffffff" d="M 218.316406 141.289062 C 218.394531 141.167969 218.464844 141.042969 218.53125 140.921875 L 218.960938 140.996094 C 218.890625 141.121094 218.820312 141.246094 218.742188 141.371094 L 218.316406 141.289062 " fill-opacity="1" fill-rule="nonzero"/><path fill="#ffffff" d="M 217.164062 142.746094 C 217.390625 142.511719 217.605469 142.265625 217.796875 142.023438 L 218.21875 142.117188 C 218.023438 142.367188 217.808594 142.613281 217.574219 142.851562 Z M 215.542969 144.132812 C 215.851562 143.910156 216.140625 143.679688 216.410156 143.449219 L 216.8125 143.570312 C 216.542969 143.804688 216.246094 144.039062 215.933594 144.265625 Z M 213.484375 145.425781 C 213.859375 145.21875 214.226562 145.007812 214.566406 144.792969 L 214.945312 144.9375 C 214.597656 145.15625 214.226562 145.371094 213.84375 145.582031 Z M 211.015625 146.589844 C 211.453125 146.410156 211.886719 146.21875 212.296875 146.023438 L 212.640625 146.191406 C 212.222656 146.390625 211.785156 146.585938 211.335938 146.769531 Z M 208.175781 147.609375 C 208.675781 147.457031 209.167969 147.292969 209.640625 147.121094 L 209.941406 147.308594 C 209.460938 147.484375 208.960938 147.652344 208.453125 147.808594 Z M 205.019531 148.457031 C 205.566406 148.332031 206.109375 148.199219 206.632812 148.058594 L 206.886719 148.261719 C 206.355469 148.40625 205.800781 148.542969 205.246094 148.671875 Z M 201.601562 149.117188 C 202.183594 149.023438 202.769531 148.921875 203.339844 148.8125 L 203.535156 149.03125 C 202.960938 149.144531 202.363281 149.25 201.769531 149.34375 Z M 197.984375 149.570312 C 198.597656 149.511719 199.210938 149.445312 199.8125 149.371094 L 199.953125 149.601562 C 199.34375 149.679688 198.71875 149.746094 198.097656 149.804688 Z M 194.246094 149.8125 C 194.875 149.789062 195.507812 149.757812 196.125 149.71875 L 196.207031 149.957031 C 195.574219 149.996094 194.933594 150.027344 194.292969 150.050781 Z M 190.445312 150.089844 L 190.441406 149.851562 L 191.941406 149.851562 C 192.078125 149.851562 192.214844 149.851562 192.351562 149.847656 L 192.367188 150.089844 C 192.230469 150.089844 192.089844 150.089844 191.953125 150.089844 Z M 186.609375 150.089844 L 186.613281 149.851562 L 188.527344 149.851562 L 188.527344 150.089844 Z M 182.773438 150.089844 L 182.789062 149.851562 C 182.851562 149.851562 182.914062 149.851562 182.976562 149.851562 L 184.699219 149.851562 L 184.695312 150.089844 L 182.96875 150.089844 C 182.902344 150.089844 182.839844 150.089844 182.773438 150.089844 Z M 178.929688 149.96875 L 179.007812 149.730469 C 179.628906 149.769531 180.261719 149.796875 180.890625 149.816406 L 180.847656 150.058594 C 180.207031 150.039062 179.5625 150.007812 178.929688 149.96875 Z M 175.175781 149.628906 L 175.3125 149.394531 C 175.914062 149.46875 176.53125 149.535156 177.144531 149.589844 L 177.039062 149.824219 C 176.414062 149.769531 175.789062 149.703125 175.175781 149.628906 Z M 171.582031 149.070312 L 171.777344 148.847656 C 172.347656 148.957031 172.933594 149.058594 173.523438 149.148438 L 173.355469 149.375 C 172.757812 149.28125 172.160156 149.179688 171.582031 149.070312 Z M 168.21875 148.3125 L 168.46875 148.105469 C 168.992188 148.242188 169.539062 148.378906 170.089844 148.5 L 169.867188 148.714844 C 169.308594 148.589844 168.753906 148.453125 168.21875 148.3125 Z M 165.144531 147.367188 L 165.445312 147.179688 C 165.917969 147.347656 166.414062 147.511719 166.917969 147.664062 L 166.640625 147.863281 C 166.128906 147.707031 165.628906 147.539062 165.144531 147.367188 Z M 162.425781 146.261719 L 162.765625 146.089844 C 163.179688 146.285156 163.617188 146.472656 164.058594 146.652344 L 163.738281 146.835938 C 163.289062 146.648438 162.847656 146.457031 162.425781 146.261719 Z M 160.097656 145.011719 L 160.472656 144.867188 C 160.820312 145.078125 161.1875 145.289062 161.570312 145.492188 L 161.210938 145.652344 C 160.824219 145.445312 160.449219 145.230469 160.097656 145.011719 Z M 158.207031 143.652344 L 158.605469 143.527344 C 158.878906 143.757812 159.175781 143.988281 159.484375 144.210938 L 159.09375 144.34375 C 158.78125 144.117188 158.480469 143.886719 158.207031 143.652344 Z M 156.773438 142.203125 L 157.195312 142.109375 C 157.390625 142.347656 157.609375 142.589844 157.84375 142.828125 L 157.429688 142.9375 C 157.195312 142.695312 156.972656 142.449219 156.773438 142.203125 " fill-opacity="1" fill-rule="nonzero"/><path fill="#ffffff" d="M 156.015625 141.082031 L 156.441406 141.003906 C 156.507812 141.128906 156.582031 141.25 156.660156 141.371094 L 156.238281 141.457031 C 156.15625 141.332031 156.082031 141.207031 156.015625 141.082031 " fill-opacity="1" fill-rule="nonzero"/><path fill="#ffffff" d="M 209.984375 136.714844 L 164.945312 136.714844 C 164.722656 137.722656 164.980469 138.71875 165.714844 139.679688 C 166.46875 140.65625 167.679688 141.550781 169.332031 142.332031 C 171.011719 143.125 173.046875 143.761719 175.378906 144.207031 C 177.820312 144.675781 180.453125 144.914062 183.191406 144.914062 L 191.730469 144.914062 C 194.472656 144.914062 197.105469 144.675781 199.542969 144.207031 C 201.875 143.761719 203.914062 143.125 205.59375 142.332031 C 207.246094 141.550781 208.460938 140.65625 209.210938 139.679688 C 209.949219 138.71875 210.207031 137.722656 209.984375 136.714844 Z M 164.550781 136.625 L 164.574219 136.535156 L 210.355469 136.535156 L 210.378906 136.625 C 210.648438 137.6875 210.398438 138.746094 209.621094 139.761719 C 208.851562 140.761719 207.613281 141.679688 205.921875 142.484375 C 204.203125 143.296875 202.121094 143.949219 199.730469 144.40625 C 197.238281 144.886719 194.542969 145.132812 191.742188 145.132812 L 183.183594 145.132812 C 180.378906 145.132812 177.683594 144.886719 175.191406 144.40625 C 172.804688 143.949219 170.722656 143.296875 169.003906 142.484375 C 167.3125 141.679688 166.074219 140.761719 165.308594 139.761719 C 164.53125 138.746094 164.28125 137.6875 164.550781 136.625 " fill-opacity="1" fill-rule="nonzero"/><path fill="#ffffff" d="M 187.5 202.820312 C 188.03125 202.820312 188.464844 203.148438 188.46875 203.554688 C 188.472656 203.96875 188.039062 204.300781 187.5 204.300781 C 186.960938 204.300781 186.527344 203.96875 186.53125 203.554688 C 186.535156 203.148438 186.96875 202.820312 187.5 202.820312 " fill-opacity="1" fill-rule="nonzero"/><path fill="#ffffff" d="M 185.410156 195.292969 L 185.414062 194.800781 L 189.585938 194.800781 L 189.589844 195.292969 L 185.410156 195.292969 " fill-opacity="1" fill-rule="nonzero"/><path fill="#ffffff" d="M 239.910156 208.421875 L 240.515625 208.191406 C 240.832031 208.546875 241.144531 208.914062 241.449219 209.28125 L 240.828125 209.5 C 240.53125 209.140625 240.222656 208.777344 239.910156 208.421875 " fill-opacity="1" fill-rule="nonzero"/><path fill="#ffffff" d="M 235.957031 204.378906 L 236.488281 204.09375 C 237.191406 204.734375 237.882812 205.402344 238.550781 206.082031 L 237.984375 206.34375 C 237.328125 205.671875 236.648438 205.011719 235.957031 204.378906 Z M 231.65625 200.808594 L 232.117188 200.480469 C 232.871094 201.042969 233.621094 201.628906 234.34375 202.226562 L 233.847656 202.535156 C 233.136719 201.945312 232.398438 201.363281 231.65625 200.808594 Z M 227.078125 197.714844 L 227.46875 197.351562 C 228.265625 197.835938 229.054688 198.339844 229.824219 198.855469 L 229.398438 199.203125 C 228.644531 198.695312 227.863281 198.191406 227.078125 197.714844 Z M 222.292969 195.082031 L 222.617188 194.691406 C 223.4375 195.097656 224.261719 195.523438 225.0625 195.964844 L 224.707031 196.339844 C 223.914062 195.90625 223.101562 195.480469 222.292969 195.082031 Z M 217.347656 192.90625 L 217.605469 192.496094 C 218.449219 192.824219 219.300781 193.171875 220.128906 193.535156 L 219.835938 193.9375 C 219.019531 193.578125 218.183594 193.230469 217.347656 192.90625 Z M 212.285156 191.175781 L 212.480469 190.75 C 213.34375 191.003906 214.207031 191.277344 215.054688 191.566406 L 214.828125 191.984375 C 213.992188 191.699219 213.136719 191.425781 212.285156 191.175781 Z M 207.144531 189.878906 L 207.28125 189.441406 C 208.148438 189.621094 209.027344 189.824219 209.886719 190.042969 L 209.722656 190.472656 C 208.871094 190.257812 208.003906 190.058594 207.144531 189.878906 Z M 201.957031 189.003906 L 202.03125 188.558594 C 202.90625 188.671875 203.789062 188.800781 204.660156 188.945312 L 204.554688 189.386719 C 203.695312 189.242188 202.824219 189.113281 201.957031 189.003906 Z M 196.75 188.550781 L 196.765625 188.101562 C 197.640625 188.144531 198.527344 188.203125 199.398438 188.277344 L 199.355469 188.726562 C 198.492188 188.652344 197.617188 188.59375 196.75 188.550781 Z M 191.527344 188.476562 L 191.515625 188.027344 L 193.566406 188.027344 C 193.753906 188.027344 193.945312 188.027344 194.132812 188.03125 L 194.144531 188.480469 C 193.957031 188.476562 193.773438 188.476562 193.585938 188.476562 Z M 186.285156 188.476562 L 186.289062 188.027344 L 188.902344 188.027344 L 188.90625 188.476562 Z M 181.058594 188.027344 C 181.148438 188.027344 181.234375 188.027344 181.324219 188.027344 L 183.675781 188.027344 L 183.664062 188.476562 L 181.304688 188.476562 C 181.21875 188.476562 181.128906 188.476562 181.042969 188.476562 Z M 175.792969 188.253906 C 176.664062 188.183594 177.550781 188.128906 178.425781 188.089844 L 178.4375 188.539062 C 177.570312 188.574219 176.695312 188.628906 175.832031 188.699219 Z M 170.527344 188.898438 C 171.398438 188.753906 172.285156 188.628906 173.15625 188.523438 L 173.226562 188.96875 C 172.363281 189.074219 171.488281 189.199219 170.628906 189.339844 Z M 165.296875 189.96875 C 166.160156 189.753906 167.039062 189.554688 167.90625 189.378906 L 168.039062 189.816406 C 167.179688 189.992188 166.3125 190.1875 165.457031 190.398438 Z M 160.125 191.46875 C 160.972656 191.183594 161.839844 190.914062 162.703125 190.664062 L 162.894531 191.089844 C 162.042969 191.339844 161.183594 191.605469 160.347656 191.886719 Z M 155.042969 193.414062 C 155.875 193.054688 156.722656 192.707031 157.570312 192.382812 L 157.824219 192.796875 C 156.988281 193.117188 156.148438 193.460938 155.332031 193.816406 Z M 150.097656 195.8125 C 150.902344 195.378906 151.726562 194.957031 152.550781 194.554688 L 152.871094 194.945312 C 152.058594 195.34375 151.246094 195.761719 150.449219 196.191406 Z M 145.324219 198.679688 C 146.09375 198.167969 146.886719 197.667969 147.683594 197.1875 L 148.070312 197.554688 C 147.285156 198.027344 146.503906 198.523438 145.746094 199.027344 Z M 140.785156 202.023438 C 141.511719 201.429688 142.265625 200.847656 143.019531 200.289062 L 143.476562 200.621094 C 142.730469 201.171875 141.992188 201.746094 141.277344 202.332031 Z M 136.554688 205.847656 C 137.226562 205.175781 137.921875 204.511719 138.628906 203.875 L 139.15625 204.164062 C 138.460938 204.792969 137.777344 205.449219 137.117188 206.113281 L 136.554688 205.847656 " fill-opacity="1" fill-rule="nonzero"/><path fill="#ffffff" d="M 133.632812 209.035156 C 133.941406 208.671875 134.257812 208.304688 134.574219 207.949219 L 135.175781 208.183594 C 134.863281 208.539062 134.550781 208.898438 134.25 209.257812 L 133.632812 209.035156 " fill-opacity="1" fill-rule="nonzero"/><path fill="#ffffff" d="M 231.402344 223.609375 C 230.433594 219.898438 228.664062 216.441406 226.179688 213.304688 C 223.796875 210.292969 220.835938 207.675781 217.394531 205.496094 C 214.039062 203.371094 210.359375 201.742188 206.425781 200.625 C 202.414062 199.484375 198.257812 198.914062 194.03125 198.914062 L 180.851562 198.914062 C 176.625 198.914062 172.46875 199.484375 168.453125 200.625 C 164.523438 201.742188 160.839844 203.371094 157.484375 205.496094 C 154.039062 207.675781 151.078125 210.292969 148.691406 213.304688 C 146.203125 216.441406 144.433594 219.898438 143.460938 223.609375 Z M 142.46875 224.3125 L 142.558594 223.960938 C 143.550781 220.019531 145.417969 216.355469 148.054688 213.046875 C 150.507812 209.972656 153.542969 207.304688 157.066406 205.085938 C 160.492188 202.925781 164.25 201.269531 168.257812 200.132812 C 172.34375 198.976562 176.574219 198.394531 180.875 198.394531 L 194.007812 198.394531 C 198.308594 198.394531 202.535156 198.976562 206.621094 200.132812 C 210.628906 201.269531 214.386719 202.925781 217.808594 205.085938 C 221.332031 207.304688 224.363281 209.972656 226.816406 213.046875 C 229.453125 216.355469 231.316406 220.019531 232.304688 223.960938 L 232.394531 224.3125 L 142.46875 224.3125 " fill-opacity="1" fill-rule="nonzero"/><path fill="#ffffff" d="M 182.652344 135.359375 L 182.589844 136.535156 L 192.339844 136.535156 L 192.277344 135.359375 Z M 182.164062 136.714844 L 182.253906 135.179688 L 192.675781 135.179688 L 192.765625 136.714844 L 182.164062 136.714844 " fill-opacity="1" fill-rule="nonzero"/><path fill="#ffffff" d="M 177.855469 224.3125 L 177.601562 229.023438 L 197.257812 229.023438 L 197.007812 224.3125 Z M 176.722656 229.769531 L 177.082031 223.609375 L 197.78125 223.609375 L 198.136719 229.769531 L 176.722656 229.769531 " fill-opacity="1" fill-rule="nonzero"/><g clip-path="url(#id2)"><path fill="#681630" d="M 260.03125 241.21875 L 114.96875 241.21875 L 112.527344 235.117188 L 262.472656 235.117188 L 260.03125 241.21875 " fill-opacity="1" fill-rule="nonzero"/></g></svg>