<svg xmlns="http://www.w3.org/2000/svg" xmlns:xlink="http://www.w3.org/1999/xlink" width="50" zoomAndPan="magnify" viewBox="0 0 37.5 37.499999" height="50" preserveAspectRatio="xMidYMid meet" version="1.0"><defs><clipPath id="d60540af9e"><path d="M 4 1.5 L 34 1.5 L 34 37 L 4 37 Z M 4 1.5 " clip-rule="nonzero"/></clipPath></defs><g clip-path="url(#d60540af9e)"><path fill="#ffffff" d="M 29.152344 2.496094 L 29.027344 2.613281 C 28.984375 2.699219 29.003906 2.78125 29.089844 2.863281 C 29.132812 2.941406 29.273438 3.019531 29.511719 3.097656 C 29.605469 3.523438 29.554688 3.914062 29.359375 4.277344 L 28.898438 5.148438 L 27.101562 7.871094 L 26.683594 8.351562 C 26.460938 8.816406 26.199219 9.1875 25.894531 9.460938 C 25.597656 9.6875 25.488281 9.941406 25.574219 10.214844 C 25.660156 10.804688 25.679688 11.359375 25.636719 11.875 L 25.28125 13.867188 C 25.238281 13.988281 25.21875 14.4375 25.21875 15.222656 C 25.21875 15.929688 25.148438 16.503906 25.015625 16.945312 L 25.015625 18.820312 C 25.015625 19.0625 24.972656 19.261719 24.886719 19.417969 C 24.886719 19.5625 25.019531 19.671875 25.28125 19.75 C 25.5625 19.835938 25.660156 19.996094 25.574219 20.234375 C 25.488281 20.476562 25.46875 20.617188 25.511719 20.65625 C 25.765625 20.796875 26.136719 21.132812 26.621094 21.660156 C 27.164062 22.203125 27.539062 22.53125 27.753906 22.648438 C 27.929688 22.765625 28.050781 22.96875 28.109375 23.25 C 28.203125 23.636719 28.292969 23.925781 28.378906 24.121094 L 28.835938 24.816406 C 29.378906 25.304688 29.671875 25.660156 29.714844 25.878906 C 29.84375 26.121094 29.800781 26.554688 29.585938 27.175781 C 29.628906 27.292969 29.554688 27.59375 29.359375 28.082031 L 29.359375 33.03125 C 29.417969 33.292969 29.535156 33.421875 29.714844 33.421875 C 29.800781 33.460938 29.953125 33.460938 30.171875 33.421875 L 30.847656 33.964844 C 30.941406 34.042969 31.09375 34.101562 31.308594 34.140625 L 31.765625 34.140625 L 33.292969 34.472656 C 33.710938 34.636719 33.6875 35 33.230469 35.566406 C 33.144531 35.789062 33.0625 35.878906 32.976562 35.839844 L 32.453125 35.839844 L 32.121094 36.191406 C 32.011719 36.230469 31.871094 36.210938 31.703125 36.132812 L 31.179688 36.191406 C 30.855469 36.316406 30.628906 36.335938 30.492188 36.25 L 29.511719 36.191406 L 28.503906 36.25 C 27.070312 36.753906 26.558594 36.160156 26.976562 34.46875 C 27.0625 34.132812 27.0625 33.570312 26.976562 32.785156 C 26.933594 32.039062 26.835938 31.484375 26.683594 31.121094 C 26.378906 30.503906 26.222656 29.882812 26.222656 29.261719 C 26.222656 28.074219 26.308594 27.359375 26.480469 27.117188 C 26.613281 26.933594 26.574219 26.761719 26.351562 26.597656 C 26.046875 26.480469 25.851562 26.382812 25.765625 26.300781 C 25.636719 26.175781 25.367188 26.234375 24.949219 26.480469 C 24.6875 26.644531 24.492188 26.644531 24.363281 26.480469 L 23.484375 25.605469 L 23.089844 25.359375 L 21.625 24.121094 C 20.996094 23.539062 20.574219 23.28125 20.351562 23.34375 C 20.265625 23.34375 20.148438 23.441406 19.996094 23.636719 C 19.867188 23.882812 19.695312 24.066406 19.472656 24.191406 C 19.261719 24.308594 18.925781 24.601562 18.464844 25.0625 C 18.289062 25.179688 17.980469 25.304688 17.550781 25.429688 C 17.464844 25.546875 17.367188 25.585938 17.257812 25.546875 C 16.90625 25.222656 16.558594 25.160156 16.210938 25.359375 L 15.207031 26.242188 L 14.199219 27.230469 C 13.851562 27.554688 13.46875 27.753906 13.050781 27.832031 C 12.535156 27.917969 11.960938 27.859375 11.332031 27.65625 C 11.152344 27.617188 10.980469 27.433594 10.808594 27.113281 C 10.5625 26.855469 10.183594 26.601562 9.664062 26.359375 L 8.515625 25.664062 C 8.21875 25.261719 7.996094 25.042969 7.84375 25.003906 L 7.511719 24.945312 C 7.296875 24.898438 7.167969 24.898438 7.117188 24.945312 L 6.859375 25.179688 L 6.378906 25.0625 C 5.976562 24.738281 5.671875 24.636719 5.460938 24.753906 C 5.085938 24.960938 4.726562 25.023438 4.378906 24.945312 C 3.925781 24.816406 3.90625 24.40625 4.3125 23.707031 L 4.835938 22.953125 C 4.972656 22.953125 5.160156 22.851562 5.394531 22.644531 C 5.566406 22.566406 5.695312 22.546875 5.777344 22.585938 L 5.917969 22.703125 L 6.859375 22.46875 L 7.574219 22.007812 L 7.90625 21.65625 C 8.015625 21.570312 8.15625 21.589844 8.328125 21.714844 C 8.757812 21.871094 9.019531 22 9.101562 22.105469 C 9.308594 22.261719 9.332031 22.582031 9.179688 23.070312 L 9.039062 23.339844 C 9.039062 23.378906 9.085938 23.421875 9.179688 23.460938 C 9.460938 23.625 10.152344 23.746094 11.257812 23.824219 C 11.605469 24.019531 11.921875 24.242188 12.210938 24.484375 C 12.382812 24.585938 12.554688 24.464844 12.734375 24.121094 C 12.859375 23.84375 13.03125 23.585938 13.242188 23.34375 C 13.574219 22.675781 13.804688 22.28125 13.929688 22.164062 L 14.515625 21.351562 L 15.726562 19.359375 C 15.8125 19.320312 16.105469 18.964844 16.605469 18.296875 C 16.871094 17.78125 17.042969 17.480469 17.128906 17.402344 C 17.757812 17.277344 18.140625 17.027344 18.273438 16.648438 C 18.316406 16.5625 18.25 16.542969 18.070312 16.589844 L 17.6875 16.519531 C 17.597656 16.441406 17.597656 16.324219 17.6875 16.164062 L 17.945312 15.707031 L 18.199219 13.984375 C 18.460938 13.121094 18.398438 12.667969 18.007812 12.628906 L 18.007812 12.6875 L 17.753906 13.054688 C 17.660156 13.21875 17.492188 13.367188 17.257812 13.5 L 17.066406 13.574219 C 16.980469 13.574219 16.828125 13.691406 16.605469 13.925781 L 16.414062 14.171875 L 15.726562 14.867188 C 15.507812 15.230469 15.222656 15.578125 14.875 15.917969 L 14.515625 16.339844 L 13.929688 16.402344 C 13.804688 16.441406 13.871094 16.5625 14.136719 16.765625 C 14.542969 17.066406 14.453125 17.164062 13.867188 17.058594 L 12.988281 16.882812 C 12.726562 16.804688 12.550781 16.644531 12.464844 16.398438 C 12.382812 16.023438 12.359375 15.792969 12.402344 15.703125 C 12.445312 15.507812 12.507812 15.367188 12.59375 15.28125 L 13.050781 15.046875 L 13.550781 14.984375 C 13.675781 14.523438 13.78125 14.25 13.867188 14.171875 L 14.808594 13.300781 C 14.988281 13.136719 15.140625 12.851562 15.269531 12.453125 L 15.460938 12.207031 C 15.722656 11.867188 15.898438 11.539062 15.980469 11.214844 C 16.050781 11.050781 16.125 10.921875 16.210938 10.828125 C 16.347656 10.738281 16.457031 10.578125 16.542969 10.34375 L 16.9375 9.402344 C 17.261719 8.921875 17.636719 8.550781 18.070312 8.292969 L 18.886719 7.679688 C 19.109375 7.484375 19.414062 7.347656 19.804688 7.269531 C 20 7.269531 20.160156 7.132812 20.289062 6.867188 C 20.464844 6.671875 20.621094 6.554688 20.746094 6.511719 C 21.09375 6.386719 21.246094 6.136719 21.207031 5.757812 L 21.015625 5.628906 C 20.75 4.84375 20.660156 4.371094 20.746094 4.214844 C 20.875 4.097656 20.894531 3.9375 20.808594 3.730469 C 20.726562 3.511719 20.703125 3.382812 20.746094 3.34375 L 20.875 3.097656 C 20.875 2.734375 21.003906 2.445312 21.269531 2.222656 L 21.433594 1.988281 L 21.6875 1.800781 L 21.828125 1.621094 L 22.542969 1.503906 L 23.550781 1.625 L 24.007812 1.683594 C 24.289062 1.761719 24.46875 1.839844 24.554688 1.917969 L 24.824219 2.320312 L 25.015625 2.378906 L 25.078125 2.554688 C 25.171875 2.59375 25.21875 2.675781 25.21875 2.800781 C 25.21875 2.917969 25.292969 3.039062 25.445312 3.15625 L 25.34375 3.460938 C 25.414062 3.808594 25.347656 4 25.152344 4.039062 C 24.933594 5.023438 24.78125 5.550781 24.695312 5.628906 L 24.363281 6.324219 C 24.28125 6.648438 24.160156 6.847656 24.007812 6.925781 C 23.964844 6.972656 24.125 7.054688 24.492188 7.175781 C 24.753906 7.355469 24.949219 7.355469 25.078125 7.175781 C 25.257812 6.8125 25.527344 6.53125 25.894531 6.324219 L 28.109375 4.792969 L 27.753906 4.394531 C 27.625 4.070312 27.605469 3.8125 27.6875 3.617188 C 27.519531 3.578125 27.582031 3.34375 27.878906 2.921875 L 28.25 2.320312 C 28.378906 2.179688 28.613281 2.148438 28.964844 2.226562 C 29.132812 2.289062 29.195312 2.378906 29.152344 2.496094 M 18.136719 33.148438 C 18.59375 32.707031 19.148438 32.488281 19.804688 32.488281 C 20.433594 32.488281 20.996094 32.710938 21.5 33.148438 C 21.972656 33.574219 22.210938 34.097656 22.210938 34.714844 C 22.210938 35.28125 21.972656 35.792969 21.5 36.25 C 20.996094 36.65625 20.433594 36.863281 19.804688 36.859375 C 19.148438 36.859375 18.59375 36.65625 18.136719 36.25 C 17.660156 35.792969 17.421875 35.28125 17.421875 34.714844 C 17.421875 34.09375 17.660156 33.574219 18.136719 33.148438 " fill-opacity="1" fill-rule="nonzero"/></g></svg>