<svg xmlns="http://www.w3.org/2000/svg" xmlns:xlink="http://www.w3.org/1999/xlink" width="50" zoomAndPan="magnify" viewBox="0 0 37.5 37.499999" height="50" preserveAspectRatio="xMidYMid meet" version="1.0"><defs><clipPath id="c113ac4923"><path d="M 6.042969 5 L 32.6875 5 L 32.6875 36.675781 L 6.042969 36.675781 Z M 6.042969 5 " clip-rule="nonzero"/></clipPath><clipPath id="22cbcad735"><path d="M 12 1.890625 L 26 1.890625 L 26 8 L 12 8 Z M 12 1.890625 " clip-rule="nonzero"/></clipPath></defs><path fill="#ffffff" d="M 25.496094 23.832031 C 25.496094 24 25.464844 24.160156 25.402344 24.3125 C 25.339844 24.464844 25.246094 24.601562 25.128906 24.71875 C 25.011719 24.835938 24.875 24.925781 24.722656 24.992188 C 24.570312 25.054688 24.410156 25.085938 24.242188 25.085938 C 24.078125 25.085938 23.917969 25.054688 23.761719 24.992188 C 23.609375 24.925781 23.472656 24.835938 23.355469 24.71875 C 23.238281 24.601562 23.148438 24.464844 23.085938 24.3125 C 23.019531 24.160156 22.988281 24 22.988281 23.832031 C 22.988281 23.667969 23.019531 23.507812 23.085938 23.351562 C 23.148438 23.199219 23.238281 23.0625 23.355469 22.945312 C 23.472656 22.828125 23.609375 22.738281 23.761719 22.675781 C 23.917969 22.609375 24.078125 22.578125 24.242188 22.578125 C 24.410156 22.578125 24.570312 22.609375 24.722656 22.675781 C 24.875 22.738281 25.011719 22.828125 25.128906 22.945312 C 25.246094 23.0625 25.339844 23.199219 25.402344 23.351562 C 25.464844 23.507812 25.496094 23.667969 25.496094 23.832031 Z M 25.496094 23.832031 " fill-opacity="1" fill-rule="nonzero"/><path fill="#ffffff" d="M 9.195312 7.53125 C 8.851562 7.53125 8.570312 7.8125 8.570312 8.160156 L 8.570312 33.863281 C 8.570312 34.210938 8.851562 34.492188 9.195312 34.492188 L 29.257812 34.492188 C 29.605469 34.492188 29.886719 34.210938 29.886719 33.863281 L 29.886719 8.160156 C 29.886719 7.8125 29.605469 7.53125 29.257812 7.53125 L 26.75 7.53125 L 26.75 8.160156 C 26.75 8.503906 26.46875 8.785156 26.125 8.785156 L 12.332031 8.785156 C 11.984375 8.785156 11.703125 8.503906 11.703125 8.160156 L 11.703125 7.53125 Z M 14.210938 31.355469 C 12.828125 31.355469 11.703125 30.230469 11.703125 28.847656 C 11.703125 27.464844 12.828125 26.339844 14.210938 26.339844 C 15.59375 26.339844 16.71875 27.464844 16.71875 28.847656 C 16.71875 30.230469 15.59375 31.355469 14.210938 31.355469 Z M 21.734375 23.832031 C 21.734375 22.449219 22.859375 21.324219 24.242188 21.324219 C 25.625 21.324219 26.75 22.449219 26.75 23.832031 C 26.75 25.214844 25.625 26.339844 24.242188 26.339844 C 22.859375 26.339844 21.734375 25.214844 21.734375 23.832031 Z M 26.933594 29.03125 C 27.179688 28.785156 27.574219 28.785156 27.820312 29.03125 C 28.066406 29.277344 28.066406 29.671875 27.820312 29.917969 L 27.011719 30.730469 L 27.820312 31.539062 C 28.066406 31.785156 28.066406 32.179688 27.820312 32.425781 C 27.699219 32.546875 27.539062 32.609375 27.378906 32.609375 C 27.21875 32.609375 27.058594 32.546875 26.933594 32.425781 L 26.125 31.617188 L 25.3125 32.425781 C 25.191406 32.546875 25.03125 32.609375 24.871094 32.609375 C 24.710938 32.609375 24.550781 32.546875 24.425781 32.425781 C 24.183594 32.179688 24.183594 31.785156 24.425781 31.539062 L 25.238281 30.730469 L 24.425781 29.917969 C 24.183594 29.671875 24.183594 29.277344 24.425781 29.03125 C 24.671875 28.785156 25.066406 28.785156 25.3125 29.03125 L 26.125 29.84375 Z M 21.550781 16.125 C 21.304688 16.371094 20.910156 16.371094 20.664062 16.125 C 20.421875 15.878906 20.421875 15.484375 20.664062 15.238281 L 23.171875 12.730469 C 23.230469 12.671875 23.300781 12.628906 23.378906 12.59375 C 23.53125 12.53125 23.703125 12.53125 23.855469 12.59375 C 23.933594 12.628906 24.003906 12.671875 24.0625 12.730469 L 26.566406 15.238281 C 26.8125 15.484375 26.8125 15.878906 26.566406 16.125 C 26.445312 16.246094 26.285156 16.308594 26.125 16.308594 C 25.964844 16.308594 25.804688 16.246094 25.679688 16.125 L 24.132812 14.578125 C 23.449219 19.445312 19.265625 23.207031 14.210938 23.207031 C 13.867188 23.207031 13.585938 22.925781 13.585938 22.578125 C 13.585938 22.230469 13.867188 21.953125 14.210938 21.953125 C 18.476562 21.953125 22.039062 18.890625 22.824219 14.851562 Z M 13.585938 13.542969 L 15.648438 11.476562 C 15.894531 11.230469 16.289062 11.230469 16.535156 11.476562 C 16.78125 11.722656 16.78125 12.117188 16.535156 12.363281 L 14.472656 14.429688 L 16.535156 16.492188 C 16.78125 16.738281 16.78125 17.132812 16.535156 17.378906 C 16.414062 17.5 16.253906 17.5625 16.09375 17.5625 C 15.933594 17.5625 15.773438 17.5 15.648438 17.378906 L 13.585938 15.316406 L 11.519531 17.378906 C 11.398438 17.5 11.238281 17.5625 11.078125 17.5625 C 10.917969 17.5625 10.757812 17.5 10.632812 17.378906 C 10.386719 17.132812 10.386719 16.738281 10.632812 16.492188 L 12.699219 14.429688 L 10.632812 12.363281 C 10.386719 12.117188 10.386719 11.722656 10.632812 11.476562 C 10.878906 11.230469 11.273438 11.230469 11.519531 11.476562 Z M 13.585938 13.542969 " fill-opacity="1" fill-rule="nonzero"/><path fill="#ffffff" d="M 18.601562 4.398438 L 19.855469 4.398438 L 19.855469 5.652344 L 18.601562 5.652344 Z M 18.601562 4.398438 " fill-opacity="1" fill-rule="nonzero"/><path fill="#ffffff" d="M 15.464844 28.847656 C 15.464844 29.015625 15.433594 29.175781 15.371094 29.328125 C 15.304688 29.480469 15.214844 29.617188 15.097656 29.734375 C 14.980469 29.851562 14.84375 29.941406 14.691406 30.007812 C 14.539062 30.070312 14.378906 30.101562 14.210938 30.101562 C 14.046875 30.101562 13.886719 30.070312 13.730469 30.007812 C 13.578125 29.941406 13.441406 29.851562 13.324219 29.734375 C 13.207031 29.617188 13.117188 29.480469 13.054688 29.328125 C 12.988281 29.175781 12.957031 29.015625 12.957031 28.847656 C 12.957031 28.683594 12.988281 28.523438 13.054688 28.367188 C 13.117188 28.214844 13.207031 28.078125 13.324219 27.960938 C 13.441406 27.84375 13.578125 27.753906 13.730469 27.691406 C 13.886719 27.625 14.046875 27.59375 14.210938 27.59375 C 14.378906 27.59375 14.539062 27.625 14.691406 27.691406 C 14.84375 27.753906 14.980469 27.84375 15.097656 27.960938 C 15.214844 28.078125 15.304688 28.214844 15.371094 28.367188 C 15.433594 28.523438 15.464844 28.683594 15.464844 28.847656 Z M 15.464844 28.847656 " fill-opacity="1" fill-rule="nonzero"/><g clip-path="url(#c113ac4923)"><path fill="#ffffff" d="M 30.511719 5.023438 L 26.75 5.023438 L 26.75 6.277344 L 29.257812 6.277344 C 30.296875 6.277344 31.140625 7.121094 31.140625 8.160156 L 31.140625 33.863281 C 31.140625 34.902344 30.296875 35.746094 29.257812 35.746094 L 9.195312 35.746094 C 8.160156 35.746094 7.316406 34.902344 7.316406 33.863281 L 7.316406 8.160156 C 7.316406 7.121094 8.160156 6.277344 9.195312 6.277344 L 11.703125 6.277344 L 11.703125 5.023438 L 7.941406 5.023438 C 6.90625 5.023438 6.0625 5.867188 6.0625 6.90625 L 6.0625 35.117188 C 6.0625 36.15625 6.90625 37 7.941406 37 L 30.511719 37 C 31.550781 37 32.394531 36.15625 32.394531 35.117188 L 32.394531 6.90625 C 32.394531 5.867188 31.550781 5.023438 30.511719 5.023438 Z M 30.511719 5.023438 " fill-opacity="1" fill-rule="nonzero"/></g><g clip-path="url(#22cbcad735)"><path fill="#ffffff" d="M 13.917969 3.769531 C 13.386719 3.769531 12.957031 4.199219 12.957031 4.730469 L 12.957031 7.53125 L 25.496094 7.53125 L 25.496094 4.730469 C 25.496094 4.199219 25.066406 3.769531 24.539062 3.769531 L 22.933594 3.769531 C 22.070312 3.769531 21.246094 3.351562 20.730469 2.652344 C 20.375 2.167969 19.828125 1.890625 19.226562 1.890625 C 18.628906 1.890625 18.082031 2.167969 17.726562 2.652344 C 17.210938 3.351562 16.386719 3.769531 15.523438 3.769531 Z M 17.347656 4.394531 C 17.347656 3.703125 17.90625 3.144531 18.597656 3.144531 L 19.859375 3.144531 C 20.546875 3.144531 21.109375 3.703125 21.109375 4.394531 L 21.109375 5.652344 C 21.109375 6.34375 20.546875 6.90625 19.859375 6.90625 L 18.597656 6.90625 C 17.90625 6.90625 17.347656 6.34375 17.347656 5.652344 Z M 17.347656 4.394531 " fill-opacity="1" fill-rule="nonzero"/></g></svg>