<svg xmlns="http://www.w3.org/2000/svg" xmlns:xlink="http://www.w3.org/1999/xlink" width="50" zoomAndPan="magnify" viewBox="0 0 37.5 37.499999" height="50" preserveAspectRatio="xMidYMid meet" version="1.0"><defs><clipPath id="72df2e04ff"><path d="M 1.007812 3.699219 L 37 3.699219 L 37 31 L 1.007812 31 Z M 1.007812 3.699219 " clip-rule="nonzero"/></clipPath></defs><g clip-path="url(#72df2e04ff)"><path fill="#ffffff" d="M 15.183594 16.171875 L 1.128906 24.285156 C 1.039062 24.335938 1.003906 24.457031 1.058594 24.546875 L 2.84375 27.640625 C 2.863281 27.675781 2.90625 27.6875 2.9375 27.667969 L 17.101562 19.492188 C 17.132812 19.472656 17.144531 19.429688 17.125 19.398438 L 15.277344 16.195312 C 15.257812 16.164062 15.214844 16.152344 15.183594 16.171875 Z M 17.105469 10.335938 C 17.28125 10.550781 17.25 10.871094 17.035156 11.050781 C 16.816406 11.230469 16.496094 11.199219 16.316406 10.980469 L 12.257812 6.046875 C 12.078125 5.832031 12.109375 5.511719 12.328125 5.332031 C 12.542969 5.152344 12.863281 5.183594 13.042969 5.402344 Z M 33.746094 21.476562 C 33.546875 21.59375 33.359375 21.757812 33.214844 21.941406 C 33.203125 21.957031 33.199219 21.976562 33.203125 22 C 33.378906 22.773438 33.433594 23.558594 33.375 24.332031 C 33.375 24.355469 33.382812 24.375 33.398438 24.386719 C 33.980469 24.945312 34.867188 25.058594 35.578125 24.648438 C 36.996094 23.820312 36.699219 21.714844 35.136719 21.292969 C 34.683594 21.171875 34.183594 21.222656 33.746094 21.476562 Z M 31.835938 18.929688 C 32.195312 19.546875 32.546875 20.117188 32.816406 20.777344 C 32.824219 20.796875 32.839844 20.8125 32.863281 20.816406 C 32.882812 20.824219 32.90625 20.820312 32.921875 20.804688 C 33.019531 20.730469 33.125 20.660156 33.238281 20.59375 C 33.796875 20.269531 34.421875 20.160156 35.019531 20.234375 C 35.042969 20.238281 35.070312 20.226562 35.082031 20.203125 C 35.097656 20.183594 35.097656 20.15625 35.085938 20.132812 L 34.621094 19.324219 C 34.046875 18.328125 32.714844 18.109375 31.851562 18.84375 C 31.824219 18.863281 31.820312 18.898438 31.835938 18.929688 Z M 18.71875 15.324219 C 18.734375 15.308594 18.753906 15.300781 18.777344 15.304688 C 18.796875 15.308594 18.816406 15.320312 18.824219 15.339844 L 20.515625 18.265625 C 20.632812 18.46875 20.558594 18.738281 20.355469 18.855469 L 18.980469 19.648438 C 18.859375 19.710938 18.761719 19.742188 18.625 19.703125 C 18.429688 19.652344 18.378906 19.53125 18.296875 19.386719 L 16.675781 16.582031 C 16.664062 16.5625 16.664062 16.539062 16.671875 16.519531 C 16.679688 16.5 16.695312 16.488281 16.714844 16.480469 C 16.824219 16.449219 16.933594 16.402344 17.039062 16.34375 L 18.40625 15.554688 C 18.40625 15.550781 18.40625 15.550781 18.410156 15.550781 C 18.519531 15.492188 18.628906 15.410156 18.71875 15.324219 Z M 19.191406 13.933594 L 21.039062 17.136719 C 21.058594 17.171875 21.101562 17.183594 21.132812 17.164062 L 21.5625 16.914062 C 24.007812 15.503906 26.933594 15.53125 29.300781 16.828125 C 29.328125 16.839844 29.359375 16.835938 29.382812 16.8125 C 29.402344 16.792969 29.40625 16.757812 29.394531 16.734375 L 29.03125 16.109375 C 27.128906 12.820312 22.929688 11.699219 19.648438 13.59375 L 19.214844 13.84375 C 19.183594 13.859375 19.171875 13.902344 19.191406 13.933594 Z M 17.667969 20.339844 C 17.695312 20.324219 17.726562 20.328125 17.75 20.347656 C 18.207031 20.777344 18.902344 20.867188 19.464844 20.546875 L 20.863281 19.734375 C 21.425781 19.410156 21.695312 18.765625 21.554688 18.152344 C 21.546875 18.121094 21.558594 18.09375 21.585938 18.078125 L 22.074219 17.792969 L 22.074219 17.796875 C 25.359375 15.898438 29.5625 17.027344 31.457031 20.308594 C 33.351562 23.589844 32.230469 27.792969 28.941406 29.695312 C 28.933594 29.699219 28.929688 29.703125 28.921875 29.707031 C 28.921875 29.707031 28.917969 29.707031 28.917969 29.707031 C 26.203125 31.261719 23.6875 30.386719 20.953125 29.433594 C 18.640625 28.625 17.03125 28.089844 14.449219 28.03125 C 10.847656 27.949219 8.59375 28.925781 5.359375 29.941406 C 5.0625 30.035156 4.753906 30.023438 4.488281 29.917969 C 3.980469 29.71875 3.804688 29.308594 3.546875 28.859375 L 3.421875 28.644531 C 3.402344 28.609375 3.414062 28.570312 3.449219 28.550781 Z M 21.132812 22.574219 C 20.488281 24.988281 21.921875 27.472656 24.335938 28.117188 C 26.75 28.765625 29.234375 27.332031 29.882812 24.917969 C 30.527344 22.503906 29.09375 20.015625 26.679688 19.371094 C 24.265625 18.722656 21.78125 20.160156 21.132812 22.574219 Z M 22.441406 10.292969 C 22.296875 10.53125 21.980469 10.609375 21.742188 10.460938 C 21.5 10.316406 21.425781 10 21.570312 9.761719 L 23.855469 6.015625 C 24.003906 5.773438 24.316406 5.699219 24.558594 5.84375 C 24.796875 5.992188 24.875 6.304688 24.726562 6.546875 Z M 19.820312 9.5 C 19.851562 9.78125 19.652344 10.035156 19.371094 10.066406 C 19.09375 10.101562 18.839844 9.898438 18.804688 9.621094 L 18.171875 4.324219 C 18.140625 4.042969 18.339844 3.789062 18.621094 3.757812 C 18.898438 3.722656 19.152344 3.925781 19.1875 4.203125 Z M 4.757812 23.558594 L 9.601562 20.761719 C 9.832031 20.628906 10.128906 20.707031 10.261719 20.9375 L 10.523438 21.394531 C 10.527344 21.394531 10.527344 21.398438 10.527344 21.398438 C 10.640625 21.632812 10.554688 21.914062 10.316406 22.039062 C 10.316406 22.039062 10.316406 22.039062 10.316406 22.042969 L 5.488281 24.828125 C 5.257812 24.960938 4.960938 24.882812 4.828125 24.652344 L 4.566406 24.195312 C 4.566406 24.195312 4.5625 24.191406 4.5625 24.191406 C 4.453125 23.953125 4.535156 23.683594 4.757812 23.558594 Z M 4.757812 23.558594 " fill-opacity="1" fill-rule="evenodd"/></g></svg>